<?xml version="1.0" encoding="UTF-8" standalone="no"?> <!-- Created with Vectornator for iOS (http://vectornator.io/) --><!DOCTYPE svg PUBLIC "-//W3C//DTD SVG 1.1//EN" "http://www.w3.org/Graphics/SVG/1.1/DTD/svg11.dtd">
<svg style="fill-rule:evenodd;clip-rule:evenodd;stroke-linecap:round;stroke-linejoin:round;" xmlns:vectornator="http://vectornator.io" xmlns:xlink="http://www.w3.org/1999/xlink" xmlns="http://www.w3.org/2000/svg" xml:space="preserve" version="1.1" viewBox="0 0 168.832 90">
<metadata>
<vectornator:setting key="DynamicGuides" value="1"/>
<vectornator:setting key="CMYKEnabledKey" value="0"/>
<vectornator:setting key="Units" value="Points"/>
<vectornator:setting key="RulersVisible" value="1"/>
<vectornator:setting key="SnapToGuides" value="1"/>
<vectornator:setting key="GridSpacing" value="36"/>
</metadata>
<defs>
<path d="M0+0L243.55+0L243.55+175.63L0+175.63L0+0Z" id="Mask"/>
</defs>
<g id="Capa 1" vectornator:layerName="Capa 1" visibility="hidden">
<g opacity="0" vectornator:mask="#Mask">
<clipPath id="ClipPath">
<use xlink:href="#Mask" fill="none" overflow="visible"/>
</clipPath>
<g clip-path="url(#ClipPath)">
<g opacity="1">
<path d="M169.034+50.7189L140.68+50.7189C131.015+50.7189+123.109+58.6259+123.109+68.2899L123.109+96.5819L152.202+96.5819C161.46+96.5819+169.034+89.0079+169.034+79.7509L169.034+50.7189ZM162.619+57.1249L140.672+57.1249C134.54+57.1249+129.523+62.1409+129.523+68.2729L129.523+90.1759L152.047+90.1759C157.861+90.1759+162.619+85.4189+162.619+79.6029L162.619+57.1249Z" opacity="1" fill="#f3722a"/>
<path d="M82.5835+64.8112L102.226+64.8112C108.92+64.8112+114.397+70.2892+114.397+76.9832L114.397+96.5822L94.2425+96.5822C87.8305+96.5822+82.5835+91.3352+82.5835+84.9222L82.5835+64.8112Z" opacity="1" fill="#a7cf3e"/>
<path d="M75.6313+102.042C73.8413+98.1631+71.5293+95.2691+68.6873+93.3511C65.8443+91.4331+62.4193+90.4821+58.4203+90.4821C55.9023+90.4911+53.5563+90.9371+51.3983+91.8351C49.2323+92.7341+47.2713+94.0451+45.5243+95.7741C43.6493+97.6581+42.2273+99.7301+41.2683+101.999C40.3093+104.269+39.8213+106.684+39.8213+109.235C39.8293+111.761+40.2323+114.116+41.0283+116.308C41.8333+118.491+43.0063+120.453+44.5483+122.183C46.3973+124.264+48.4863+125.83+50.8073+126.875C53.1193+127.928+55.6453+128.45+58.3683+128.45C62.3243+128.45+65.7243+127.518+68.5673+125.642C71.4103+123.775+73.6793+120.975+75.3743+117.25L66.6403+117.25C65.7323+118.518+64.5683+119.477+63.1553+120.145C61.7343+120.813+60.1243+121.146+58.3173+121.154C56.7933+121.146+55.3623+120.855+54.0273+120.273C52.6913+119.69+51.5093+118.868+50.4993+117.807C49.4803+116.754+48.6753+115.503+48.1013+114.064C47.5273+112.635+47.2283+111.051+47.2193+109.338C47.2193+108.336+47.3473+107.352+47.6053+106.366C47.8613+105.391+48.2473+104.448+48.7523+103.55C49.2493+102.65+49.8743+101.819+50.6103+101.066C51.6463+100.004+52.8193+99.2081+54.1383+98.6601C55.4483+98.1041+56.8443+97.8291+58.3173+97.8291C60.1923+97.8291+61.8373+98.1971+63.2663+98.9171C64.6883+99.6271+65.8953+100.672+66.8973+102.042L75.6313+102.042ZM92.6373+105.741L92.6373+99.7301C91.1563+99.7301+89.8373+100.03+88.6903+100.62C87.5343+101.22+86.4893+102.119+85.5473+103.326L85.5473+100.142L79.5363+100.142L79.5363+127.731L85.9583+127.731L85.9583+113.653C85.9493+112.369+86.0443+111.256+86.2323+110.306C86.4213+109.354+86.7553+108.567+87.2343+107.925C87.7223+107.283+88.3993+106.786+89.2723+106.427C90.1543+106.066+91.2673+105.844+92.6373+105.741M100.241+115.966L122.334+115.966C122.334+115.734+122.342+115.503+122.359+115.272C122.377+115.041+122.385+114.81+122.385+114.578C122.393+112.763+122.188+111.102+121.768+109.612C121.349+108.122+120.681+106.761+119.765+105.536C118.797+104.209+117.693+103.087+116.443+102.162C115.201+101.237+113.839+100.535+112.383+100.056C110.919+99.5671+109.395+99.3191+107.794+99.3191C105.876+99.3281+104.043+99.7221+102.288+100.51C100.532+101.306+98.9483+102.444+97.5183+103.943C96.2343+105.313+95.2573+106.838+94.6073+108.524C93.9473+110.22+93.6133+112.026+93.6133+113.962C93.6133+115.203+93.7763+116.428+94.1023+117.636C94.4183+118.852+94.8813+120.007+95.4973+121.112C96.1053+122.208+96.8503+123.219+97.7243+124.135C99.1113+125.573+100.678+126.652+102.408+127.371C104.137+128.091+106.021+128.45+108.05+128.45C110.097+128.441+111.981+128.073+113.711+127.337C115.432+126.592+116.947+125.514+118.257+124.101C119.559+122.688+120.612+120.975+121.409+118.945L114.473+118.945C113.796+120.059+112.88+120.906+111.741+121.497C110.603+122.088+109.326+122.379+107.897+122.388C106.432+122.379+105.156+122.123+104.06+121.6C102.964+121.086+102.091+120.35+101.44+119.391C100.78+118.432+100.387+117.293+100.241+115.966M115.449+110.879L100.447+110.879C100.78+109.724+101.312+108.729+102.031+107.882C102.75+107.043+103.607+106.384+104.6+105.93C105.593+105.468+106.655+105.236+107.794+105.228C109.755+105.228+111.381+105.707+112.683+106.666C113.985+107.617+114.901+109.021+115.449+110.879M146.224+109.954L153.058+109.954C152.655+108.302+152.03+106.829+151.191+105.519C150.352+104.209+149.333+103.096+148.134+102.171C146.935+101.246+145.599+100.544+144.118+100.056C142.645+99.5671+141.069+99.3191+139.391+99.3191C137.301+99.3191+135.367+99.7131+133.568+100.492C131.77+101.271+130.152+102.428+128.705+103.943C127.394+105.313+126.41+106.838+125.742+108.524C125.083+110.22+124.749+112.026+124.749+113.962C124.749+115.187+124.911+116.402+125.237+117.618C125.553+118.825+126.024+119.99+126.641+121.095C127.266+122.208+128.019+123.219+128.91+124.135C130.298+125.548+131.864+126.627+133.602+127.354C135.332+128.082+137.233+128.45+139.289+128.45C141.609+128.441+143.707+128.005+145.565+127.149C147.423+126.284+148.99+125.051+150.257+123.433C151.533+121.822+152.45+119.879+153.006+117.609L146.173+117.609C145.043+120.59+142.731+122.08+139.237+122.08C138.098+122.071+137.053+121.865+136.103+121.463C135.144+121.052+134.313+120.487+133.611+119.75C132.909+119.014+132.361+118.149+131.967+117.156C131.582+116.171+131.384+115.084+131.377+113.91C131.384+112.694+131.582+111.59+131.967+110.579C132.352+109.569+132.892+108.704+133.586+107.959C134.279+107.223+135.092+106.657+136.017+106.247C136.942+105.844+137.944+105.639+139.031+105.639C140.675+105.639+142.089+105.998+143.288+106.718C144.477+107.437+145.454+108.516+146.224+109.954M162.511+115.966L184.603+115.966C184.603+115.734+184.612+115.503+184.63+115.272C184.646+115.041+184.655+114.81+184.655+114.578C184.664+112.763+184.458+111.102+184.039+109.612C183.619+108.122+182.951+106.761+182.035+105.536C181.067+104.209+179.963+103.087+178.713+102.162C177.47+101.237+176.109+100.535+174.654+100.056C173.189+99.5671+171.665+99.3191+170.064+99.3191C168.146+99.3281+166.313+99.7221+164.557+100.51C162.802+101.306+161.218+102.444+159.788+103.943C158.504+105.313+157.527+106.838+156.877+108.524C156.217+110.22+155.883+112.026+155.883+113.962C155.883+115.203+156.047+116.428+156.372+117.636C156.688+118.852+157.151+120.007+157.767+121.112C158.376+122.208+159.121+123.219+159.994+124.135C161.381+125.573+162.948+126.652+164.677+127.371C166.407+128.091+168.291+128.45+170.32+128.45C172.367+128.441+174.251+128.073+175.981+127.337C177.702+126.592+179.217+125.514+180.528+124.101C181.829+122.688+182.882+120.975+183.679+118.945L176.743+118.945C176.066+120.059+175.15+120.906+174.011+121.497C172.873+122.088+171.596+122.379+170.167+122.388C168.702+122.379+167.426+122.123+166.33+121.6C165.234+121.086+164.361+120.35+163.71+119.391C163.05+118.432+162.657+117.293+162.511+115.966M177.719+110.879L162.716+110.879C163.05+109.724+163.582+108.729+164.3+107.882C165.02+107.043+165.877+106.384+166.87+105.93C167.863+105.468+168.925+105.236+170.064+105.228C172.025+105.228+173.651+105.707+174.953+106.666C176.255+107.617+177.171+109.021+177.719+110.879M201.506+105.741L201.506+99.7301C200.026+99.7301+198.707+100.03+197.559+100.62C196.403+101.22+195.359+102.119+194.417+103.326L194.417+100.142L188.406+100.142L188.406+127.731L194.828+127.731L194.828+113.653C194.819+112.369+194.914+111.256+195.102+110.306C195.29+109.354+195.625+108.567+196.104+107.925C196.591+107.283+197.268+106.786+198.141+106.427C199.024+106.066+200.136+105.844+201.506+105.741" opacity="1" fill="#024e91"/>
<path d="M39.784+138.409L201.764+138.409L201.764+133.272L39.784+133.272L39.784+138.409Z" opacity="1" fill="#bdbfc1"/>
<path d="M100.536+147.937L100.536+142.671L101.772+142.671C102.126+142.671+102.384+142.691+102.548+142.73C102.713+142.771+102.858+142.838+102.982+142.934C103.138+143.055+103.259+143.22+103.345+143.425C103.432+143.63+103.475+143.857+103.475+144.106C103.475+144.538+103.355+144.865+103.113+145.09C102.872+145.315+102.519+145.426+102.054+145.426L101.942+145.426L103.954+147.937L103.159+147.937L101.237+145.426L101.147+145.426L101.147+147.937L100.536+147.937ZM101.147+143.201L101.147+144.962L101.625+144.962C102.115+144.962+102.443+144.9+102.608+144.773C102.774+144.648+102.856+144.428+102.856+144.114C102.856+143.776+102.772+143.54+102.601+143.403C102.431+143.268+102.105+143.201+101.625+143.201L101.147+143.201ZM104.859+147.585C104.859+147.468+104.901+147.368+104.986+147.283C105.069+147.2+105.17+147.158+105.288+147.158C105.407+147.158+105.51+147.2+105.595+147.282C105.68+147.364+105.723+147.466+105.723+147.585C105.723+147.703+105.681+147.802+105.596+147.882C105.513+147.962+105.41+148.002+105.288+148.002C105.167+148.002+105.066+147.962+104.984+147.882C104.901+147.802+104.859+147.703+104.859+147.585M108.006+147.348L108.404+147.348C109.053+147.348+109.501+147.32+109.75+147.263C109.999+147.207+110.207+147.111+110.373+146.973C110.589+146.794+110.752+146.562+110.865+146.278C110.978+145.994+111.035+145.668+111.035+145.301C111.035+144.931+110.979+144.608+110.868+144.328C110.756+144.048+110.591+143.818+110.373+143.635C110.207+143.497+109.997+143.398+109.742+143.339C109.486+143.28+109.04+143.25+108.404+143.25L108.006+143.25L108.006+147.348ZM107.371+147.937L107.371+142.671L108.384+142.671C109.132+142.671+109.658+142.709+109.964+142.784C110.269+142.86+110.538+142.987+110.768+143.164C111.07+143.397+111.3+143.694+111.455+144.056C111.612+144.418+111.689+144.835+111.689+145.307C111.689+145.778+111.612+146.194+111.457+146.555C111.302+146.915+111.073+147.211+110.768+147.445C110.538+147.622+110.276+147.749+109.982+147.825C109.689+147.899+109.231+147.937+108.61+147.937L108.384+147.937L107.371+147.937ZM112.663+147.585C112.663+147.468+112.704+147.368+112.789+147.283C112.873+147.2+112.974+147.158+113.092+147.158C113.21+147.158+113.314+147.2+113.398+147.282C113.483+147.364+113.526+147.466+113.526+147.585C113.526+147.703+113.484+147.802+113.4+147.882C113.316+147.962+113.213+148.002+113.092+148.002C112.971+148.002+112.869+147.962+112.787+147.882C112.704+147.802+112.663+147.703+112.663+147.585M117.349+147.937L117.349+142.462L121.202+146.671L121.202+142.671L121.799+142.671L121.799+148.142L117.946+143.98L117.946+147.937L117.349+147.937ZM124.726+143.721C124.726+143.521+124.656+143.35+124.515+143.211C124.375+143.072+124.203+143.001+124+143.001C123.799+143.001+123.626+143.072+123.483+143.211C123.34+143.35+123.268+143.521+123.268+143.721C123.268+143.92+123.34+144.091+123.483+144.233C123.626+144.374+123.799+144.444+124+144.444C124.203+144.444+124.375+144.374+124.515+144.233C124.656+144.091+124.726+143.92+124.726+143.721M123.998+142.707C124.278+142.707+124.517+142.806+124.715+143.005C124.914+143.204+125.014+143.443+125.014+143.724C125.014+144.002+124.914+144.242+124.714+144.441C124.514+144.639+124.272+144.739+123.99+144.739C123.708+144.739+123.469+144.64+123.273+144.444C123.078+144.248+122.981+144.006+122.981+143.724C122.981+143.44+123.079+143.198+123.277+143.001C123.474+142.805+123.714+142.707+123.998+142.707M128.572+147.873L130.821+143.268L128.382+143.268L128.382+142.721L131.721+142.721L129.09+148.135L128.572+147.873ZM133.277+147.873L135.526+143.268L133.087+143.268L133.087+142.721L136.426+142.721L133.796+148.135L133.277+147.873ZM137.919+145.308L137.8+145.287L138.426+142.721L140.738+142.721L140.738+143.26L138.853+143.26L138.522+144.614C138.641+144.55+138.77+144.504+138.907+144.472C139.045+144.439+139.188+144.423+139.34+144.423C139.855+144.423+140.263+144.577+140.562+144.885C140.862+145.193+141.012+145.612+141.012+146.138C141.012+146.738+140.839+147.211+140.492+147.558C140.145+147.904+139.674+148.078+139.077+148.078C138.715+148.078+138.405+148.015+138.147+147.888C137.89+147.763+137.67+147.568+137.49+147.304L137.932+146.791C138.051+147.03+138.207+147.212+138.406+147.34C138.603+147.467+138.832+147.531+139.092+147.531C139.47+147.531+139.774+147.409+140.005+147.167C140.234+146.925+140.349+146.603+140.349+146.2C140.349+145.817+140.231+145.508+139.993+145.278C139.753+145.045+139.435+144.93+139.037+144.93C138.829+144.93+138.63+144.962+138.442+145.026C138.254+145.088+138.078+145.183+137.919+145.308" opacity="1" fill="#a8aaad"/>
<path d="M64.2534+108.046C64.2154+108.228+64.1774+108.408+64.1394+108.59C64.1464+108.591+64.1524+108.592+64.1594+108.593C64.2744+108.421+64.3214+108.241+64.2534+108.046M72.8554+112.077L72.8554+112.275C72.8364+112.285+72.8154+112.296+72.7994+112.31C72.7524+112.351+72.7074+112.39+72.6354+112.352C72.6184+112.377+72.6054+112.399+72.5904+112.421C72.4344+112.308+72.4204+112.152+72.4144+112.012C72.4074+111.859+72.3354+111.734+72.2584+111.605C72.1944+111.498+72.1074+111.399+72.0594+111.288C72.0224+111.203+71.9554+111.154+71.8774+111.105C71.8384+111.081+71.8014+111.056+71.7664+111.029C71.7324+111.003+71.6984+110.995+71.6694+111.028C71.6294+111.075+71.6014+111.057+71.5694+111.024C71.5214+110.973+71.4744+110.921+71.4234+110.871C71.4074+110.857+71.3804+110.848+71.3584+110.836C71.3504+110.858+71.3404+110.878+71.3344+110.9C71.3134+110.985+71.2914+111.071+71.2734+111.158C71.2614+111.214+71.2454+111.273+71.2514+111.329C71.2734+111.546+71.3034+111.762+71.3324+111.979C71.3344+112.002+71.3374+112.029+71.3544+112.044C71.4824+112.158+71.4034+112.278+71.3634+112.393C71.3484+112.436+71.3464+112.46+71.3794+112.493C71.4254+112.537+71.4464+112.585+71.4004+112.642C71.3714+112.678+71.3814+112.714+71.4114+112.752C71.4354+112.782+71.4464+112.821+71.4504+112.858C71.4754+113.114+71.4474+113.374+71.5164+113.629C71.5234+113.654+71.5064+113.685+71.4974+113.712C71.4824+113.757+71.4484+113.801+71.4484+113.846C71.4414+114.13+71.4194+114.412+71.3334+114.689C71.3104+114.762+71.3144+114.822+71.3704+114.883C71.4604+114.982+71.4624+115.018+71.3794+115.121C71.3404+115.169+71.3424+115.207+71.3754+115.259C71.4244+115.337+71.4874+115.415+71.4614+115.514C71.4514+115.55+71.4404+115.577+71.3854+115.574C71.2034+115.565+71.0224+115.556+70.8394+115.55C70.7754+115.547+70.7544+115.52+70.7554+115.474C70.7574+115.417+70.7634+115.36+70.7624+115.304C70.7624+115.275+70.7534+115.247+70.7404+115.221C70.7194+115.176+70.6844+115.134+70.6694+115.087C70.6464+115.017+70.6334+114.943+70.6204+114.871C70.6054+114.792+70.5954+114.714+70.6494+114.639C70.6714+114.609+70.6824+114.571+70.6844+114.537C70.6984+114.3+70.7114+114.064+70.7184+113.826C70.7194+113.774+70.7004+113.719+70.6774+113.669C70.6574+113.624+70.6564+113.586+70.6844+113.544C70.7014+113.516+70.7114+113.481+70.7134+113.449C70.7234+113.33+70.6754+113.223+70.6234+113.114C70.5854+113.037+70.5654+112.955+70.5324+112.877C70.5234+112.855+70.4994+112.836+70.4824+112.817C70.4684+112.837+70.4464+112.856+70.4414+112.877C70.4114+113.007+70.3844+113.137+70.3574+113.267C70.3314+113.391+70.3044+113.515+70.2804+113.639C70.2604+113.745+70.3204+113.857+70.2594+113.962C70.2554+113.968+70.2614+113.978+70.2624+113.986C70.2654+114.036+70.2704+114.086+70.2704+114.136C70.2684+114.23+70.2444+114.327+70.2654+114.418C70.2964+114.557+70.2484+114.662+70.1444+114.766C70.0824+114.827+70.0194+114.894+70.0214+114.983C70.0244+115.057+70.0224+115.13+70.0244+115.203C70.0274+115.318+69.9614+115.4+69.8444+115.453C69.6794+115.529+69.4454+115.437+69.4394+115.288C69.4314+115.123+69.4424+114.958+69.6004+114.831C69.6434+114.796+69.6374+114.762+69.6084+114.718C69.5824+114.678+69.5674+114.629+69.5634+114.583C69.5554+114.5+69.5594+114.415+69.5574+114.331C69.5564+114.265+69.5544+114.198+69.5514+114.132C69.5494+114.072+69.5604+114.007+69.5354+113.953C69.5124+113.901+69.5084+113.859+69.5244+113.809C69.5564+113.706+69.6444+113.616+69.6314+113.503C69.6144+113.359+69.5964+113.215+69.5764+113.071C69.5574+112.932+69.5284+112.793+69.5174+112.653C69.5054+112.528+69.5124+112.401+69.5104+112.275C69.5104+112.232+69.4924+112.2+69.4384+112.176C69.3244+112.127+69.3154+112.062+69.3904+111.979C69.4134+111.953+69.4314+111.92+69.4394+111.889C69.4784+111.749+69.5084+111.609+69.5484+111.47C69.6314+111.19+69.7144+110.909+69.8724+110.649C69.8894+110.62+69.8984+110.588+69.9104+110.558L69.8064+110.61C69.7774+110.625+69.7534+110.662+69.7104+110.63C69.6574+110.591+69.6124+110.609+69.5604+110.636C69.4404+110.697+69.3174+110.756+69.1924+110.811C69.1624+110.823+69.1154+110.827+69.0834+110.817C69.0034+110.794+68.9194+110.771+68.8544+110.729C68.6074+110.567+68.3694+110.399+68.1264+110.234C68.1054+110.219+68.0714+110.2+68.0484+110.204C67.9514+110.221+67.8794+110.179+67.7994+110.15C67.7254+110.123+67.7084+110.083+67.7154+110.026C67.7404+109.857+67.7614+109.686+67.8474+109.526C67.8814+109.464+67.8834+109.402+67.8444+109.338C67.8144+109.288+67.7924+109.234+67.7674+109.182C67.6844+109.013+67.6084+108.842+67.5194+108.675C67.4354+108.519+67.3324+108.368+67.3284+108.19C67.3274+108.157+67.3034+108.119+67.2764+108.094C67.1914+108.01+67.1564+107.91+67.1344+107.807C67.1124+107.7+67.1134+107.697+66.9934+107.732C66.9384+107.746+66.9224+107.731+66.9094+107.69C66.8784+107.592+66.8424+107.496+66.8054+107.4C66.7984+107.383+66.7754+107.369+66.7594+107.354C66.7424+107.387+66.7384+107.413+66.7424+107.439C66.7604+107.574+66.7834+107.709+66.8004+107.845C66.8344+108.127+66.8854+108.407+66.8564+108.692C66.8564+108.698+66.8574+108.705+66.8574+108.711C66.8734+108.938+66.8884+109.164+66.9054+109.391C66.9094+109.446+66.8944+109.481+66.8164+109.477C66.7384+109.473+66.7054+109.506+66.7124+109.568C66.7144+109.59+66.7124+109.61+66.7134+109.632C66.7304+109.888+66.7524+110.144+66.7614+110.399C66.7704+110.641+66.7644+110.882+66.7654+111.124C66.7664+111.281+66.7854+111.437+66.8384+111.59C66.8534+111.632+66.8494+111.69+66.8264+111.729C66.7454+111.865+66.7304+112.002+66.7764+112.149C66.7974+112.217+66.7954+112.291+66.7924+112.361C66.7854+112.542+66.7754+112.723+66.7614+112.903C66.7554+112.985+66.7514+113.072+66.7214+113.15C66.6164+113.422+66.5834+113.698+66.6304+113.982C66.6364+114.016+66.6354+114.055+66.6214+114.086C66.5924+114.152+66.6154+114.21+66.6334+114.274C66.6614+114.372+66.6864+114.475+66.6804+114.575C66.6734+114.716+66.6384+114.856+66.6134+114.996C66.6004+115.077+66.5904+115.158+66.5254+115.229C66.4434+115.317+66.3034+115.357+66.1774+115.322C66.0414+115.284+65.9814+115.185+65.9084+115.095C65.8574+115.031+65.8604+114.964+65.8744+114.89C65.9034+114.722+65.9264+114.553+65.9414+114.383C65.9454+114.348+65.9154+114.304+65.8864+114.275C65.8484+114.237+65.7954+114.209+65.7484+114.178C65.7374+114.171+65.7194+114.165+65.7084+114.168C65.6984+114.171+65.6874+114.187+65.6884+114.197C65.6924+114.268+65.6874+114.342+65.7104+114.408C65.8044+114.674+65.7654+114.94+65.7294+115.206C65.7264+115.225+65.7194+115.247+65.7044+115.258C65.6544+115.297+65.6494+115.345+65.6534+115.397C65.6574+115.445+65.6234+115.466+65.5674+115.474C65.4894+115.485+65.4124+115.503+65.3344+115.519C65.3024+115.525+65.2704+115.536+65.2384+115.535C65.0384+115.529+64.8394+115.521+64.6394+115.511C64.5854+115.509+64.5534+115.481+64.5434+115.436C64.5224+115.336+64.5834+115.234+64.6914+115.189C64.8244+115.132+64.8404+115.029+64.7284+114.948C64.6614+114.9+64.6604+114.866+64.7124+114.803C64.7294+114.782+64.7434+114.751+64.7364+114.73C64.7194+114.676+64.6924+114.625+64.6644+114.575C64.6264+114.51+64.5754+114.448+64.5454+114.38C64.4704+114.213+64.5134+114.037+64.5034+113.865C64.4924+113.654+64.5234+113.442+64.5244+113.23C64.5244+113.002+64.5124+112.774+64.5014+112.545C64.4984+112.5+64.4764+112.456+64.4564+112.414C64.4184+112.334+64.3754+112.256+64.3874+112.166C64.3944+112.109+64.3934+112.053+64.3894+111.996C64.3694+111.72+64.3504+111.442+64.3254+111.166C64.3114+111.01+64.2974+110.852+64.2604+110.697C64.2234+110.542+64.1554+110.392+64.1064+110.238C64.0344+110.017+64.0094+109.792+64.0664+109.566C64.0784+109.523+64.0814+109.484+64.0324+109.452C64.0174+109.442+64.0074+109.414+64.0114+109.396C64.0414+109.233+64.0764+109.068+64.1074+108.905C64.1134+108.868+64.1124+108.83+64.1144+108.792C64.1044+108.791+64.0934+108.789+64.0824+108.787C64.0434+108.886+64.0034+108.983+63.9634+109.081C63.8974+109.241+63.8354+109.403+63.7634+109.563C63.7104+109.68+63.6324+109.79+63.6514+109.923C63.6644+110.015+63.6614+110.109+63.6764+110.199C63.6954+110.318+63.6254+110.424+63.5774+110.522C63.5174+110.645+63.3724+110.72+63.1914+110.717C63.0904+110.714+63.0164+110.652+63.0284+110.568C63.0334+110.531+63.0254+110.502+62.9724+110.505C62.9184+110.509+62.9074+110.48+62.9164+110.45C62.9474+110.354+62.9254+110.26+62.9164+110.163C62.9124+110.119+62.9264+110.072+62.9394+110.027C62.9744+109.9+63.0194+109.775+62.9984+109.643C62.9704+109.466+62.9474+109.291+62.8764+109.119C62.7754+108.876+62.7084+108.624+62.6254+108.376C62.6184+108.356+62.6034+108.338+62.5824+108.304C62.5634+108.337+62.5504+108.352+62.5464+108.368C62.5214+108.468+62.4674+108.549+62.3554+108.598C62.3394+108.605+62.3254+108.623+62.3234+108.638C62.3074+108.713+62.3164+108.783+62.3544+108.858C62.4444+109.035+62.5344+109.214+62.5964+109.399C62.6814+109.648+62.6634+109.907+62.6344+110.162C62.5984+110.474+62.5394+110.782+62.4894+111.093C62.4584+111.281+62.4214+111.47+62.3924+111.659C62.3644+111.842+62.3244+112.022+62.3554+112.21C62.3994+112.468+62.3994+112.731+62.3524+112.988C62.3304+113.108+62.3424+113.23+62.2774+113.345C62.2454+113.403+62.2514+113.476+62.2384+113.542C62.2314+113.58+62.2194+113.614+62.1664+113.629C62.1474+113.634+62.1284+113.656+62.1224+113.674C62.1074+113.723+62.0954+113.773+62.0894+113.822C62.0664+114.009+62.0474+114.195+62.0274+114.383C62.0254+114.403+62.0244+114.428+62.0364+114.444C62.0914+114.526+62.0684+114.614+62.0734+114.701C62.0764+114.746+62.0884+114.792+62.1074+114.833C62.1544+114.938+62.2034+115.041+62.2004+115.154C62.1984+115.208+62.1784+115.256+62.1064+115.259C61.9474+115.265+61.7894+115.265+61.6304+115.263C61.6034+115.263+61.5684+115.244+61.5494+115.225C61.4714+115.147+61.4924+115.058+61.5174+114.968C61.5564+114.83+61.5934+114.697+61.4844+114.563C61.4104+114.47+61.4164+114.361+61.4754+114.256C61.5054+114.204+61.5404+114.148+61.5434+114.092C61.5504+113.97+61.5424+113.846+61.5354+113.723C61.5334+113.697+61.5164+113.671+61.4984+113.65C61.4904+113.639+61.4624+113.632+61.4464+113.635C61.4364+113.636+61.4224+113.657+61.4234+113.669C61.4254+113.71+61.4224+113.743+61.3614+113.755C61.3464+113.758+61.3314+113.787+61.3284+113.806C61.3154+113.884+61.3044+113.963+61.2964+114.042C61.2944+114.07+61.2944+114.102+61.3034+114.129C61.3354+114.228+61.3394+114.326+61.3204+114.428C61.3154+114.456+61.3204+114.486+61.3214+114.516C61.3254+114.584+61.3264+114.653+61.3344+114.723C61.3514+114.871+61.2664+115.027+61.3874+115.168C61.3944+115.177+61.3934+115.193+61.3914+115.205C61.3684+115.348+61.3334+115.43+61.1474+115.442C61.1374+115.443+61.1274+115.447+61.1174+115.448C60.9554+115.471+60.8044+115.44+60.6694+115.367C60.5644+115.311+60.5374+115.155+60.6024+115.063C60.6174+115.041+60.6304+115.018+60.6374+114.993C60.6564+114.926+60.6734+114.858+60.6894+114.79C60.7124+114.684+60.7414+114.577+60.7554+114.469C60.7834+114.254+60.7334+114.043+60.6774+113.834C60.6704+113.806+60.6504+113.769+60.6234+113.757C60.5674+113.732+60.5504+113.696+60.5474+113.65C60.5454+113.581+60.5444+113.513+60.5374+113.444C60.5334+113.391+60.5154+113.338+60.5134+113.285C60.5114+113.201+60.5224+113.118+60.5204+113.035C60.5184+112.931+60.5044+112.826+60.5034+112.722C60.5014+112.618+60.4964+112.517+60.4384+112.423C60.4134+112.382+60.3914+112.338+60.3794+112.294C60.3224+112.094+60.2664+111.893+60.2164+111.692C60.1794+111.54+60.1454+111.388+60.1234+111.234C60.0974+111.049+60.0854+110.862+60.0664+110.676C60.0644+110.651+60.0614+110.626+60.0544+110.602C60.0244+110.481+59.9924+110.359+59.9614+110.238C59.8504+109.792+59.9714+109.379+60.2394+108.992C60.3194+108.875+60.3784+108.761+60.3674+108.627C60.3654+108.606+60.3524+108.572+60.3344+108.567C60.2664+108.544+60.2344+108.502+60.2204+108.449C60.2044+108.388+60.1934+108.325+60.1834+108.263C60.1724+108.2+60.1654+108.138+60.1554+108.075L60.1344+108.076C60.1264+108.155+60.1224+108.234+60.1074+108.313C60.0964+108.367+60.0814+108.425+60.0494+108.474C60.0264+108.508+59.9764+108.535+59.9314+108.553C59.8294+108.596+59.7214+108.63+59.6164+108.668C59.6114+108.67+59.6094+108.674+59.6054+108.677C59.4714+108.754+59.3374+108.831+59.2034+108.907C59.1744+108.924+59.1384+108.931+59.1104+108.948C59.0784+108.968+59.0494+108.992+59.0244+109.018C59.0064+109.035+58.9994+109.06+58.9854+109.079C58.8364+109.296+58.6364+109.48+58.4354+109.662C58.4184+109.678+58.3984+109.693+58.3754+109.699C58.2874+109.722+58.1984+109.746+58.1084+109.759C58.0374+109.768+57.9944+109.784+57.9994+109.852C58.0014+109.885+57.9924+109.918+57.9884+109.952C57.9844+109.994+57.9594+110.013+57.9074+110.019C57.8194+110.026+57.7314+110.038+57.6464+110.056C57.5244+110.079+57.5264+110.083+57.5244+110.188C57.5184+110.397+57.5824+110.606+57.5204+110.815C57.5174+110.826+57.5234+110.84+57.5264+110.852C57.5714+111.011+57.6204+111.169+57.6614+111.329C57.6954+111.466+57.7234+111.606+57.7514+111.743C57.7604+111.785+57.7444+111.817+57.6914+111.834C57.6474+111.849+57.6364+111.875+57.6424+111.915C57.6514+111.975+57.6634+112.036+57.6564+112.097C57.6444+112.195+57.6504+112.289+57.6794+112.388C57.7834+112.749+57.8134+113.117+57.7724+113.488C57.7644+113.56+57.7374+113.612+57.6654+113.651C57.6164+113.678+57.5904+113.715+57.5944+113.769C57.5974+113.812+57.5844+113.856+57.5844+113.9C57.5864+113.993+57.5754+114.09+57.5994+114.18C57.6284+114.29+57.6904+114.395+57.7324+114.503C57.7524+114.552+57.7644+114.605+57.7704+114.656C57.7744+114.692+57.7794+114.746+57.7544+114.765C57.6854+114.815+57.6474+114.9+57.5164+114.89C57.4154+114.881+57.2954+114.852+57.2614+114.773C57.1984+114.624+57.2044+114.469+57.2104+114.315C57.2144+114.207+57.2644+114.099+57.2034+113.992C57.1944+113.977+57.1814+113.961+57.1704+113.945C57.1634+113.965+57.1534+113.983+57.1494+114.003C57.1414+114.044+57.1534+114.102+57.1244+114.124C57.0804+114.159+57.0614+114.196+57.0824+114.233C57.1294+114.318+57.1174+114.408+57.1274+114.496C57.1394+114.602+57.1664+114.706+57.1874+114.812C57.2114+114.929+57.2384+115.045+57.2604+115.163C57.2664+115.195+57.2674+115.234+57.2514+115.263C57.2114+115.334+57.1634+115.402+57.1134+115.469C57.0324+115.578+56.9154+115.622+56.7604+115.606C56.5964+115.589+56.5054+115.506+56.5444+115.392C56.5854+115.268+56.6374+115.146+56.6784+115.021C56.6994+114.956+56.7264+114.884+56.7134+114.82C56.6784+114.646+56.6254+114.474+56.5734+114.302C56.5674+114.28+56.5324+114.256+56.5044+114.25C56.4464+114.235+56.3854+114.234+56.3254+114.225C56.2774+114.218+56.2384+114.201+56.2374+114.152C56.2314+113.838+56.2254+113.524+56.2184+113.208C56.2174+113.186+56.2184+113.157+56.2034+113.142C56.1304+113.067+56.1514+112.98+56.1494+112.895C56.1484+112.846+56.1494+112.793+56.1294+112.748C56.0414+112.548+55.9924+112.341+55.9624+112.13C55.9574+112.085+55.9364+112.06+55.8784+112.06C55.8524+112.061+55.8274+112.057+55.8024+112.054C55.7504+112.049+55.7254+112.024+55.7314+111.981C55.7504+111.824+55.7744+111.668+55.7884+111.511C55.7984+111.396+55.8584+111.274+55.7444+111.168C55.7364+111.161+55.7364+111.149+55.7344+111.138C55.7044+110.957+55.6754+110.777+55.6444+110.597C55.6414+110.578+55.6284+110.56+55.6194+110.541C55.5954+110.551+55.5674+110.556+55.5494+110.57C55.4554+110.646+55.3634+110.724+55.2714+110.802C55.2324+110.835+55.1984+110.865+55.1304+110.839C55.1004+110.827+55.0524+110.845+55.0134+110.853C54.9824+110.859+54.9514+110.874+54.9204+110.874C54.6514+110.874+54.3844+110.873+54.1154+110.871C54.0244+110.87+53.9344+110.864+53.8574+110.92C53.8344+110.938+53.8014+110.952+53.7704+110.956C53.6834+110.969+53.6284+111.017+53.5744+111.067C53.5534+111.085+53.5364+111.108+53.5124+111.122C53.4914+111.134+53.4614+111.137+53.4364+111.143C53.4444+111.124+53.4514+111.105+53.4614+111.087C53.4874+111.045+53.5524+111.022+53.5504+110.958C53.5244+110.964+53.5054+110.966+53.4914+110.973C53.4244+111.005+53.3584+111.041+53.2904+111.071C53.2694+111.08+53.2394+111.074+53.2134+111.075C53.2264+111.055+53.2324+111.027+53.2514+111.016C53.3094+110.983+53.3734+110.957+53.4314+110.924C53.4514+110.912+53.4614+110.887+53.4764+110.868C53.4704+110.865+53.4644+110.861+53.4584+110.859C53.3244+110.886+53.1904+110.914+53.0574+110.942L53.0574+110.879C53.1774+110.848+53.2974+110.817+53.4174+110.786C53.4144+110.775+53.4114+110.764+53.4094+110.753C53.2914+110.766+53.1744+110.778+53.0574+110.791L53.0574+110.715C53.1814+110.701+53.3064+110.688+53.4304+110.672C53.4724+110.667+53.5154+110.658+53.5544+110.647C53.5724+110.641+53.5944+110.621+53.5954+110.607C53.5964+110.594+53.5734+110.577+53.5564+110.567C53.5204+110.548+53.4764+110.536+53.4454+110.514C53.4264+110.499+53.4254+110.469+53.4164+110.445C53.4414+110.447+53.4714+110.444+53.4954+110.452C53.6974+110.527+53.8944+110.615+54.1294+110.574C54.1734+110.567+54.2194+110.567+54.2654+110.565C54.3964+110.556+54.5274+110.549+54.6584+110.537C54.7534+110.529+54.8034+110.473+54.8054+110.396C54.8054+110.373+54.8254+110.344+54.8474+110.328C55.0244+110.205+55.1854+110.072+55.2944+109.898C55.3344+109.834+55.4034+109.774+55.4774+109.736C55.6534+109.647+55.8404+109.572+56.0244+109.492C56.0624+109.477+56.1004+109.466+56.0954+109.422C56.0904+109.379+56.0684+109.348+56.0174+109.331C55.9824+109.319+55.9424+109.305+55.9224+109.282C55.8594+109.205+55.7934+109.127+55.7474+109.043C55.6984+108.949+55.6714+108.848+55.7284+108.745C55.7414+108.721+55.7394+108.692+55.7504+108.666C55.7734+108.613+55.7864+108.554+55.8254+108.512C55.8944+108.438+55.9774+108.372+56.0604+108.307C56.0824+108.29+56.1234+108.282+56.1554+108.281C56.2204+108.28+56.2864+108.29+56.3514+108.291C56.5524+108.292+56.7244+108.36+56.8814+108.455C56.9624+108.504+57.0124+108.571+57.0124+108.659C57.0124+108.713+57.0234+108.769+57.0164+108.822C57.0034+108.928+57.0324+109.05+56.8834+109.115C56.8684+109.122+56.8634+109.145+56.8504+109.157C56.8334+109.174+56.8164+109.197+56.7934+109.203C56.7214+109.224+56.7324+109.268+56.7404+109.312C56.7494+109.363+56.7984+109.354+56.8404+109.354C56.8764+109.354+56.9114+109.355+56.9474+109.356C57.2424+109.369+57.5374+109.383+57.8334+109.398C57.8584+109.399+57.8824+109.403+57.9084+109.405C57.9984+109.41+58.0884+109.42+58.1784+109.416C58.2184+109.414+58.2664+109.391+58.2954+109.364C58.4024+109.267+58.4954+109.158+58.6084+109.066C58.7154+108.979+58.7624+108.885+58.7504+108.759C58.7324+108.582+58.8434+108.462+59.0314+108.385C59.1044+108.355+59.1894+108.336+59.2134+108.251C59.2354+108.174+59.2814+108.103+59.3734+108.061C59.3904+108.053+59.4044+108.023+59.4004+108.006C59.3744+107.912+59.4424+107.837+59.4614+107.752C59.4884+107.633+59.6534+107.557+59.6094+107.417C59.6074+107.41+59.6204+107.402+59.6214+107.394C59.6244+107.369+59.6314+107.343+59.6254+107.319C59.6064+107.253+59.6154+107.181+59.6274+107.124C59.6434+107.056+59.6744+106.985+59.6914+106.912C59.7174+106.798+59.7594+106.686+59.8114+106.576C59.8584+106.477+59.9294+106.383+60.0614+106.344C60.1874+106.307+60.3164+106.278+60.4444+106.245C60.4704+106.238+60.4954+106.228+60.5274+106.217C60.3784+106.133+60.3754+106.122+60.4334+105.983C60.4414+105.964+60.4524+105.942+60.4474+105.923C60.4284+105.855+60.4774+105.808+60.5114+105.755C60.5214+105.739+60.5274+105.723+60.5354+105.707C60.5294+105.705+60.5244+105.703+60.5184+105.701C60.5034+105.715+60.4864+105.729+60.4644+105.748C60.4244+105.699+60.4394+105.654+60.4594+105.613C60.5174+105.501+60.5904+105.393+60.6374+105.277C60.6864+105.16+60.7164+105.036+60.7474+104.914C60.7904+104.739+60.8584+104.579+61.0424+104.469C61.2704+104.332+61.5274+104.298+61.7974+104.322C61.9974+104.34+62.1454+104.439+62.2424+104.577C62.2984+104.657+62.3164+104.755+62.3584+104.843C62.4254+104.977+62.5434+105.097+62.4974+105.257C62.4954+105.26+62.4994+105.265+62.5004+105.269C62.5374+105.404+62.5744+105.54+62.6114+105.675C62.6214+105.711+62.6324+105.748+62.6434+105.784C62.6624+105.845+62.6654+105.902+62.6284+105.961C62.6154+105.984+62.6184+106.025+62.6334+106.048C62.6874+106.123+62.6494+106.192+62.5444+106.2C62.5114+106.203+62.4794+106.209+62.4494+106.219C62.4364+106.223+62.4174+106.242+62.4204+106.25C62.4244+106.264+62.4414+106.277+62.4584+106.282C62.5554+106.317+62.6544+106.349+62.7534+106.381C62.8604+106.416+62.9464+106.47+62.9804+106.567C63.0034+106.632+63.0254+106.696+63.0504+106.76C63.0944+106.867+63.1324+106.971+63.1374+107.09C63.1424+107.221+63.2184+107.348+63.2484+107.48C63.2634+107.547+63.2294+107.62+63.2624+107.69C63.2644+107.694+63.2534+107.704+63.2514+107.712C63.2464+107.752+63.2314+107.795+63.2404+107.833C63.2564+107.902+63.2564+107.965+63.2094+108.026C63.1974+108.041+63.1924+108.062+63.1944+108.079C63.2024+108.179+63.2114+108.278+63.2224+108.378C63.2554+108.677+63.2894+108.976+63.3234+109.275C63.3264+109.298+63.3354+109.32+63.3414+109.343C63.3504+109.343+63.3584+109.343+63.3674+109.344C63.3744+109.313+63.3864+109.282+63.3874+109.251C63.4034+108.942+63.4174+108.634+63.4344+108.325C63.4374+108.276+63.4524+108.226+63.4704+108.179C63.5274+108.029+63.5974+107.883+63.5934+107.721C63.5924+107.661+63.5754+107.629+63.4984+107.63C63.4434+107.631+63.4204+107.606+63.4294+107.561C63.4404+107.509+63.4524+107.457+63.4634+107.405C63.4954+107.251+63.5404+107.097+63.5584+106.941C63.5804+106.738+63.5784+106.534+63.5924+106.331C63.6074+106.085+63.7994+105.932+64.0244+105.809C64.1354+105.748+64.2684+105.717+64.3914+105.673C64.4514+105.65+64.5124+105.632+64.5694+105.605C64.6204+105.58+64.6604+105.537+64.7134+105.52C64.8104+105.487+64.8174+105.425+64.8134+105.357C64.8114+105.337+64.7914+105.305+64.7744+105.302C64.6734+105.285+64.6464+105.215+64.6024+105.154C64.5714+105.111+64.5364+105.07+64.5044+105.028C64.4664+104.977+64.4164+104.929+64.3974+104.873C64.3544+104.751+64.3324+104.624+64.2954+104.501C64.2554+104.371+64.3064+104.244+64.3104+104.116C64.3114+104.103+64.3274+104.085+64.3424+104.075C64.4524+103.999+64.5544+103.913+64.6954+103.873C64.7164+103.867+64.7304+103.846+64.7484+103.832L65.1884+103.832C65.2384+103.859+65.2854+103.895+65.3404+103.914C65.5474+103.984+65.6644+104.133+65.6574+104.316C65.6564+104.346+65.6794+104.385+65.7064+104.404C65.7544+104.439+65.7744+104.475+65.7704+104.525C65.7634+104.59+65.7654+104.656+65.7524+104.72C65.7344+104.803+65.7064+104.886+65.6164+104.937C65.5684+104.963+65.5504+104.995+65.5564+105.037C65.5734+105.157+65.5884+105.278+65.6174+105.398C65.6244+105.426+65.6764+105.457+65.7164+105.468C65.7794+105.485+65.8514+105.484+65.9174+105.498C65.9474+105.504+65.9724+105.527+66.0004+105.542C66.0254+105.556+66.0504+105.574+66.0784+105.581C66.1854+105.606+66.2984+105.616+66.3994+105.651C66.5874+105.715+66.7744+105.775+66.9764+105.8C67.0024+105.803+67.0334+105.822+67.0474+105.842C67.1674+106.002+67.3314+106.14+67.3704+106.34C67.3934+106.456+67.4614+106.567+67.4894+106.683C67.5514+106.939+67.6254+107.191+67.7554+107.429C67.7774+107.469+67.7964+107.504+67.7494+107.542C67.7364+107.552+67.7364+107.578+67.7424+107.595C67.7664+107.67+67.7944+107.743+67.8204+107.817C67.8414+107.875+67.8614+107.934+67.8824+107.991C67.9254+108.106+67.9854+108.217+68.0104+108.333C68.0554+108.548+68.0824+108.765+68.1144+108.982C68.1314+109.096+68.1414+109.211+68.1634+109.324C68.1784+109.406+68.2224+109.485+68.2304+109.567C68.2414+109.696+68.2294+109.827+68.2324+109.956C68.2334+109.985+68.2514+110.026+68.2774+110.041C68.3794+110.094+68.4864+110.142+68.5944+110.186C68.7304+110.24+68.8674+110.293+69.0074+110.341C69.0464+110.354+69.0974+110.35+69.1424+110.345C69.1704+110.343+69.1984+110.327+69.2244+110.315C69.2824+110.284+69.3804+110.287+69.3734+110.197C69.3734+110.191+69.3884+110.181+69.3984+110.175C69.5274+110.114+69.6524+110.045+69.7884+109.997C69.8654+109.971+69.9614+109.983+70.0484+109.974C70.0774+109.971+70.1044+109.955+70.1314+109.944C70.1104+109.926+70.0904+109.906+70.0684+109.889C70.0644+109.885+70.0544+109.885+70.0474+109.883C69.9364+109.858+69.9174+109.806+69.9904+109.732C70.0394+109.682+70.0964+109.636+70.1394+109.582C70.1684+109.546+70.1814+109.5+70.1964+109.458C70.2194+109.395+70.2184+109.317+70.2634+109.27C70.3594+109.168+70.4174+109.05+70.4994+108.943C70.5264+108.907+70.5764+108.876+70.6244+108.858C70.7774+108.801+70.9434+108.799+71.1074+108.8C71.2354+108.8+71.3564+108.836+71.4634+108.893C71.6364+108.984+71.7124+109.13+71.7494+109.287C71.7774+109.411+71.8244+109.524+71.9374+109.607C72.0024+109.653+72.0384+109.729+72.1374+109.748C72.1874+109.758+72.2434+109.895+72.2314+109.938C72.2144+110.001+72.1654+110.031+72.0934+110.049C72.0154+110.068+71.9774+110.125+71.9404+110.18C71.9284+110.196+71.9184+110.22+71.8994+110.228C71.8394+110.252+71.7754+110.271+71.7114+110.292C71.7124+110.295+71.7174+110.302+71.7234+110.308C71.8214+110.408+71.9204+110.509+72.0174+110.61C72.0294+110.623+72.0264+110.647+72.0354+110.663C72.0494+110.692+72.0604+110.726+72.0844+110.749C72.1754+110.838+72.2904+110.914+72.3604+111.013C72.4344+111.117+72.4774+111.239+72.5184+111.358C72.5714+111.513+72.6074+111.672+72.6534+111.828C72.6844+111.931+72.7734+112.002+72.8554+112.077M61.4204+112.552L61.3924+112.552C61.3884+112.58+61.3794+112.608+61.3804+112.637C61.3854+112.708+61.3974+112.778+61.3994+112.85C61.4054+113.033+61.4084+113.217+61.4144+113.401C61.4144+113.424+61.4264+113.446+61.4334+113.469C61.4484+113.448+61.4784+113.429+61.4784+113.409C61.4844+113.202+61.4924+112.995+61.4854+112.788C61.4824+112.709+61.4434+112.631+61.4204+112.552M61.3594+112.337L61.3824+112.337C61.3824+112.257+61.3804+112.177+61.3824+112.096C61.3894+111.849+61.4004+111.601+61.4024+111.354C61.4024+111.255+61.3844+111.156+61.3684+111.06C61.3624+111.023+61.3374+110.987+61.3204+110.951C61.3114+110.952+61.3014+110.954+61.2914+110.956C61.3184+111.416+61.1914+111.88+61.3594+112.337M65.6504+113.98C65.6614+113.979+65.6714+113.978+65.6824+113.977C65.7054+113.892+65.7374+113.809+65.7264+113.717C65.7174+113.65+65.7164+113.58+65.7184+113.511C65.7194+113.459+65.7374+113.407+65.7374+113.356C65.7374+113.212+65.7224+113.069+65.7324+112.927C65.7494+112.693+65.7154+112.456+65.8074+112.228C65.8164+112.206+65.7964+112.155+65.7754+112.149C65.6834+112.119+65.6724+112.06+65.6664+111.992C65.6354+111.636+65.6014+111.28+65.5744+110.924C65.5684+110.848+65.5454+110.779+65.4954+110.718C65.4844+110.704+65.4624+110.698+65.4454+110.688C65.4354+110.703+65.4184+110.719+65.4174+110.735C65.4154+110.769+65.4244+110.802+65.4244+110.835C65.4134+111.556+65.4024+112.275+65.4734+112.995C65.5034+113.295+65.5404+113.593+65.6094+113.888C65.6174+113.919+65.6364+113.949+65.6504+113.98" opacity="1" fill="#024e91"/>
<path d="M49.44+29.95L50.375+29.95L50.375+37.813L49.44+37.813L49.44+29.95ZM52.192+37.813L52.192+32.898L53.013+32.898L53.013+33.657C53.224+33.341+53.479+33.107+53.776+32.953C54.073+32.799+54.417+32.722+54.808+32.722C55.387+32.722+55.842+32.876+56.167+33.184C56.493+33.492+56.656+33.921+56.656+34.467L56.656+37.813L55.796+37.813L55.796+34.919C55.796+34.422+55.692+34.051+55.483+33.811C55.272+33.569+54.949+33.448+54.513+33.448C54.262+33.448+54.033+33.494+53.827+33.586C53.622+33.675+53.45+33.806+53.314+33.974C53.211+34.102+53.136+34.249+53.092+34.414C53.046+34.579+53.024+34.865+53.024+35.274L53.024+37.813L52.192+37.813ZM57.8+36.986L58.519+36.503C58.654+36.764+58.827+36.961+59.034+37.091C59.243+37.221+59.488+37.287+59.771+37.287C60.046+37.287+60.27+37.219+60.44+37.084C60.61+36.946+60.695+36.768+60.695+36.547C60.695+36.374+60.636+36.231+60.521+36.115C60.403+36.002+60.204+35.896+59.921+35.798L59.782+35.751C58.585+35.34+57.987+34.823+57.987+34.203C57.987+33.767+58.148+33.411+58.471+33.136C58.794+32.859+59.212+32.722+59.727+32.722C60.154+32.722+60.519+32.806+60.823+32.977C61.127+33.148+61.346+33.387+61.479+33.699L60.797+34.119C60.697+33.894+60.548+33.719+60.354+33.598C60.158+33.476+59.932+33.415+59.673+33.415C59.426+33.415+59.225+33.484+59.068+33.622C58.913+33.76+58.836+33.936+58.836+34.151C58.836+34.451+59.162+34.704+59.813+34.907C59.936+34.948+60.033+34.977+60.104+34.999C60.638+35.172+61.008+35.367+61.219+35.588C61.428+35.807+61.533+36.099+61.533+36.46C61.533+36.926+61.368+37.302+61.036+37.589C60.704+37.877+60.271+38.022+59.738+38.022C59.279+38.022+58.891+37.936+58.57+37.764C58.249+37.593+57.993+37.333+57.8+36.986M62.928+33.591L62.026+33.591L62.026+32.898L62.928+32.898L62.928+30.916L63.788+30.916L63.788+32.898L64.689+32.898L64.689+33.591L63.788+33.591L63.788+37.813L62.928+37.813L62.928+33.591ZM65.491+30.529C65.491+30.36+65.551+30.217+65.67+30.097C65.792+29.977+65.937+29.917+66.109+29.917C66.277+29.917+66.42+29.977+66.542+30.1C66.661+30.221+66.721+30.368+66.721+30.54C66.721+30.709+66.663+30.852+66.543+30.969C66.426+31.088+66.281+31.147+66.109+31.147C65.937+31.147+65.792+31.088+65.67+30.969C65.551+30.852+65.491+30.705+65.491+30.529M65.689+32.898L66.538+32.898L66.538+37.813L65.689+37.813L65.689+32.898ZM68.439+33.591L67.537+33.591L67.537+32.898L68.439+32.898L68.439+30.916L69.299+30.916L69.299+32.898L70.201+32.898L70.201+33.591L69.299+33.591L69.299+37.813L68.439+37.813L68.439+33.591ZM71.946+32.898L71.946+35.316C71.946+36.022+72.051+36.515+72.26+36.796C72.471+37.076+72.823+37.217+73.321+37.217C73.818+37.217+74.17+37.078+74.377+36.801C74.583+36.523+74.686+36.027+74.686+35.316L74.686+32.898L75.545+32.898L75.545+35.767C75.545+36.508+75.356+37.069+74.977+37.45C74.597+37.832+74.038+38.022+73.301+38.022C72.569+38.022+72.016+37.832+71.636+37.448C71.257+37.065+71.066+36.504+71.066+35.767L71.066+32.898L71.946+32.898ZM80.942+36.647L80.942+37.625C80.721+37.758+80.471+37.857+80.193+37.923C79.916+37.989+79.615+38.022+79.294+38.022C78.535+38.022+77.923+37.782+77.459+37.3C76.995+36.818+76.764+36.185+76.764+35.402C76.764+34.614+77.004+33.971+77.485+33.472C77.963+32.971+78.578+32.722+79.325+32.722C79.599+32.722+79.864+32.752+80.123+32.808C80.383+32.865+80.627+32.949+80.856+33.059L80.856+33.963C80.642+33.824+80.42+33.716+80.191+33.642C79.962+33.569+79.729+33.532+79.492+33.532C78.94+33.532+78.499+33.705+78.165+34.051C77.833+34.396+77.666+34.856+77.666+35.428C77.666+35.934+77.833+36.356+78.168+36.696C78.504+37.036+78.924+37.206+79.428+37.206C79.683+37.206+79.931+37.162+80.174+37.072C80.418+36.983+80.675+36.841+80.942+36.647M81.958+30.529C81.958+30.36+82.019+30.217+82.138+30.097C82.259+29.977+82.403+29.917+82.576+29.917C82.745+29.917+82.888+29.977+83.009+30.1C83.128+30.221+83.188+30.368+83.188+30.54C83.188+30.709+83.129+30.852+83.01+30.969C82.893+31.088+82.748+31.147+82.576+31.147C82.403+31.147+82.259+31.088+82.138+30.969C82.019+30.852+81.958+30.705+81.958+30.529M82.156+32.898L83.005+32.898L83.005+37.813L82.156+37.813L82.156+32.898ZM85.271+35.369C85.271+35.888+85.445+36.328+85.792+36.688C86.14+37.047+86.56+37.226+87.055+37.226C87.546+37.226+87.962+37.047+88.307+36.688C88.65+36.328+88.822+35.888+88.822+35.369C88.822+34.85+88.65+34.41+88.307+34.051C87.962+33.692+87.546+33.512+87.055+33.512C86.556+33.512+86.134+33.692+85.79+34.051C85.443+34.41+85.271+34.85+85.271+35.369M84.38+35.369C84.38+35.008+84.446+34.667+84.578+34.346C84.712+34.026+84.904+33.741+85.159+33.49C85.412+33.239+85.702+33.048+86.022+32.918C86.345+32.788+86.69+32.722+87.055+32.722C87.412+32.722+87.751+32.788+88.072+32.92C88.393+33.054+88.685+33.246+88.945+33.501C89.2+33.747+89.392+34.031+89.526+34.352C89.658+34.672+89.724+35.012+89.724+35.369C89.724+35.727+89.658+36.064+89.526+36.381C89.392+36.698+89.2+36.981+88.945+37.226C88.685+37.485+88.391+37.681+88.067+37.818C87.743+37.954+87.405+38.022+87.055+38.022C86.694+38.022+86.351+37.954+86.026+37.82C85.702+37.687+85.412+37.494+85.159+37.243C84.904+36.986+84.712+36.698+84.578+36.385C84.446+36.069+84.38+35.731+84.38+35.369M86.287+32.125L87.383+30.255L88.463+30.255L86.932+32.125L86.287+32.125ZM91.035+37.813L91.035+32.898L91.856+32.898L91.856+33.657C92.067+33.341+92.322+33.107+92.619+32.953C92.916+32.799+93.261+32.722+93.651+32.722C94.23+32.722+94.685+32.876+95.01+33.184C95.336+33.492+95.499+33.921+95.499+34.467L95.499+37.813L94.64+37.813L94.64+34.919C94.64+34.422+94.535+34.051+94.326+33.811C94.115+33.569+93.792+33.448+93.356+33.448C93.105+33.448+92.875+33.494+92.67+33.586C92.465+33.675+92.292+33.806+92.157+33.974C92.054+34.102+91.979+34.249+91.935+34.414C91.889+34.579+91.868+34.865+91.868+35.274L91.868+37.813L91.035+37.813ZM100.495+37.813L100.495+29.95L104.642+29.95L104.642+30.804L101.43+30.804L101.43+33.059L104.642+33.059L104.642+33.93L101.43+33.93L101.43+36.943L104.642+36.943L104.642+37.813L100.495+37.813ZM109.9+35.38C109.9+34.832+109.748+34.39+109.444+34.057C109.139+33.721+108.738+33.554+108.239+33.554C107.742+33.554+107.354+33.706+107.075+34.011C106.794+34.316+106.655+34.735+106.655+35.272C106.655+35.877+106.796+36.352+107.079+36.693C107.363+37.036+107.753+37.206+108.25+37.206C108.766+37.206+109.17+37.045+109.462+36.722C109.753+36.401+109.9+35.952+109.9+35.38M110.716+29.488L110.716+37.813L109.9+37.813L109.9+36.922C109.706+37.276+109.457+37.547+109.148+37.738C108.84+37.927+108.496+38.022+108.116+38.022C107.41+38.022+106.842+37.78+106.412+37.295C105.98+36.81+105.764+36.167+105.764+35.369C105.764+34.565+105.975+33.921+106.398+33.441C106.82+32.963+107.383+32.722+108.085+32.722C108.492+32.722+108.848+32.814+109.148+32.999C109.449+33.182+109.691+33.457+109.878+33.822L109.878+29.488L110.716+29.488ZM113.219+32.898L113.219+35.316C113.219+36.022+113.323+36.515+113.532+36.796C113.743+37.076+114.095+37.217+114.594+37.217C115.091+37.217+115.442+37.078+115.65+36.801C115.855+36.523+115.958+36.027+115.958+35.316L115.958+32.898L116.817+32.898L116.817+35.767C116.817+36.508+116.629+37.069+116.249+37.45C115.87+37.832+115.311+38.022+114.574+38.022C113.842+38.022+113.288+37.832+112.909+37.448C112.529+37.065+112.339+36.504+112.339+35.767L112.339+32.898L113.219+32.898ZM122.215+36.647L122.215+37.625C121.993+37.758+121.744+37.857+121.465+37.923C121.188+37.989+120.887+38.022+120.566+38.022C119.808+38.022+119.195+37.782+118.731+37.3C118.268+36.818+118.037+36.185+118.037+35.402C118.037+34.614+118.277+33.971+118.757+33.472C119.236+32.971+119.85+32.722+120.598+32.722C120.871+32.722+121.137+32.752+121.396+32.808C121.655+32.865+121.899+32.949+122.129+33.059L122.129+33.963C121.914+33.824+121.692+33.716+121.463+33.642C121.234+33.569+121.001+33.532+120.765+33.532C120.213+33.532+119.771+33.705+119.437+34.051C119.105+34.396+118.938+34.856+118.938+35.428C118.938+35.934+119.105+36.356+119.441+36.696C119.776+37.036+120.196+37.206+120.701+37.206C120.956+37.206+121.203+37.162+121.446+37.072C121.69+36.983+121.947+36.841+122.215+36.647M127.146+35.402C127.146+34.847+126.994+34.4+126.692+34.062C126.39+33.723+125.995+33.554+125.507+33.554C125.003+33.554+124.609+33.71+124.327+34.022C124.043+34.334+123.901+34.768+123.901+35.327C123.901+35.921+124.044+36.38+124.329+36.7C124.612+37.023+125.019+37.185+125.54+37.185C126.041+37.185+126.436+37.028+126.72+36.715C127.004+36.401+127.146+35.963+127.146+35.402M127.963+32.898L127.963+37.813L127.146+37.813L127.146+36.921C126.95+37.28+126.697+37.553+126.392+37.74C126.085+37.929+125.742+38.022+125.362+38.022C124.656+38.022+124.088+37.78+123.657+37.295C123.227+36.81+123.011+36.167+123.011+35.369C123.011+34.561+123.22+33.917+123.64+33.439C124.058+32.96+124.618+32.722+125.32+32.722C125.731+32.722+126.089+32.814+126.392+32.999C126.693+33.182+126.939+33.457+127.124+33.822L127.124+32.898L127.963+32.898ZM129.771+33.591L128.87+33.591L128.87+32.898L129.771+32.898L129.771+30.916L130.632+30.916L130.632+32.898L131.533+32.898L131.533+33.591L130.632+33.591L130.632+37.813L129.771+37.813L129.771+33.591ZM132.335+30.529C132.335+30.36+132.396+30.217+132.515+30.097C132.636+29.977+132.78+29.917+132.952+29.917C133.121+29.917+133.265+29.977+133.386+30.1C133.504+30.221+133.564+30.368+133.564+30.54C133.564+30.709+133.506+30.852+133.387+30.969C133.27+31.088+133.125+31.147+132.952+31.147C132.78+31.147+132.636+31.088+132.515+30.969C132.396+30.852+132.335+30.705+132.335+30.529M132.532+32.898L133.382+32.898L133.382+37.813L132.532+37.813L132.532+32.898ZM136.77+38.119L134.337+32.898L135.283+32.898L136.761+36.33L138.242+32.898L139.187+32.898L136.77+38.119ZM143.855+35.402C143.855+34.847+143.703+34.4+143.401+34.062C143.099+33.723+142.704+33.554+142.217+33.554C141.713+33.554+141.318+33.71+141.036+34.022C140.752+34.334+140.61+34.768+140.61+35.327C140.61+35.921+140.754+36.38+141.038+36.7C141.322+37.023+141.728+37.185+142.25+37.185C142.75+37.185+143.145+37.028+143.429+36.715C143.713+36.401+143.855+35.963+143.855+35.402M144.672+32.898L144.672+37.813L143.855+37.813L143.855+36.921C143.659+37.28+143.406+37.553+143.101+37.74C142.794+37.929+142.451+38.022+142.071+38.022C141.366+38.022+140.798+37.78+140.367+37.295C139.936+36.81+139.72+36.167+139.72+35.369C139.72+34.561+139.929+33.917+140.349+33.439C140.767+32.96+141.327+32.722+142.029+32.722C142.44+32.722+142.798+32.814+143.101+32.999C143.402+33.182+143.648+33.457+143.834+33.822L143.834+32.898L144.672+32.898ZM150.597+34.284L150.597+37.813L149.684+37.813L149.684+29.95L151.332+29.95C151.909+29.95+152.333+29.981+152.606+30.042C152.878+30.102+153.114+30.203+153.313+30.342C153.564+30.52+153.761+30.766+153.902+31.077C154.043+31.389+154.115+31.735+154.115+32.115C154.115+32.495+154.043+32.839+153.902+33.151C153.761+33.463+153.564+33.709+153.313+33.886C153.114+34.029+152.879+34.132+152.608+34.192C152.339+34.253+151.913+34.284+151.332+34.284L151.07+34.284L150.597+34.284ZM150.597+33.435L151.07+33.435C151.871+33.435+152.412+33.341+152.688+33.153C152.966+32.966+153.104+32.638+153.104+32.168C153.104+31.668+152.962+31.314+152.678+31.11C152.394+30.907+151.856+30.804+151.07+30.804L150.597+30.804L150.597+33.435ZM158.343+35.402C158.343+34.847+158.19+34.4+157.889+34.062C157.586+33.723+157.191+33.554+156.704+33.554C156.199+33.554+155.806+33.71+155.523+34.022C155.239+34.334+155.098+34.768+155.098+35.327C155.098+35.921+155.241+36.38+155.525+36.7C155.81+37.023+156.215+37.185+156.737+37.185C157.237+37.185+157.632+37.028+157.916+36.715C158.2+36.401+158.343+35.963+158.343+35.402M159.159+32.898L159.159+37.813L158.343+37.813L158.343+36.921C158.146+37.28+157.894+37.553+157.588+37.74C157.281+37.929+156.938+38.022+156.559+38.022C155.854+38.022+155.285+37.78+154.854+37.295C154.423+36.81+154.207+36.167+154.207+35.369C154.207+34.561+154.416+33.917+154.836+33.439C155.254+32.96+155.814+32.722+156.517+32.722C156.928+32.722+157.285+32.814+157.588+32.999C157.89+33.182+158.136+33.457+158.321+33.822L158.321+32.898L159.159+32.898ZM160.851+37.813L160.851+32.898L161.597+32.898L161.597+33.921C161.822+33.494+162.062+33.19+162.317+33.006C162.57+32.824+162.881+32.733+163.245+32.733C163.347+32.733+163.443+32.74+163.537+32.757C163.629+32.773+163.722+32.797+163.815+32.828L163.537+33.588C163.439+33.554+163.348+33.53+163.262+33.514C163.176+33.5+163.093+33.49+163.016+33.49C162.57+33.49+162.238+33.651+162.017+33.971C161.795+34.292+161.684+34.774+161.684+35.419L161.684+37.813L160.851+37.813ZM164.829+33.591L163.928+33.591L163.928+32.898L164.829+32.898L164.829+30.916L165.689+30.916L165.689+32.898L166.591+32.898L166.591+33.591L165.689+33.591L165.689+37.813L164.829+37.813L164.829+33.591ZM167.393+30.529C167.393+30.36+167.453+30.217+167.572+30.097C167.692+29.977+167.838+29.917+168.01+29.917C168.179+29.917+168.322+29.977+168.443+30.1C168.562+30.221+168.622+30.368+168.622+30.54C168.622+30.709+168.563+30.852+168.444+30.969C168.327+31.088+168.183+31.147+168.01+31.147C167.838+31.147+167.692+31.088+167.572+30.969C167.453+30.852+167.393+30.705+167.393+30.529M167.59+32.898L168.44+32.898L168.44+37.813L167.59+37.813L167.59+32.898ZM173.981+36.647L173.981+37.625C173.76+37.758+173.511+37.857+173.231+37.923C172.955+37.989+172.654+38.022+172.333+38.022C171.574+38.022+170.962+37.782+170.498+37.3C170.034+36.818+169.803+36.185+169.803+35.402C169.803+34.614+170.043+33.971+170.523+33.472C171.002+32.971+171.616+32.722+172.364+32.722C172.638+32.722+172.903+32.752+173.162+32.808C173.422+32.865+173.666+32.949+173.896+33.059L173.896+33.963C173.681+33.824+173.459+33.716+173.229+33.642C173.001+33.569+172.768+33.532+172.531+33.532C171.979+33.532+171.537+33.705+171.204+34.051C170.872+34.396+170.705+34.856+170.705+35.428C170.705+35.934+170.872+36.356+171.207+36.696C171.543+37.036+171.963+37.206+172.467+37.206C172.722+37.206+172.97+37.162+173.213+37.072C173.457+36.983+173.714+36.841+173.981+36.647M175.941+32.898L175.941+35.316C175.941+36.022+176.046+36.515+176.255+36.796C176.466+37.076+176.817+37.217+177.316+37.217C177.813+37.217+178.165+37.078+178.372+36.801C178.577+36.523+178.681+36.027+178.681+35.316L178.681+32.898L179.54+32.898L179.54+35.767C179.54+36.508+179.352+37.069+178.972+37.45C178.593+37.832+178.033+38.022+177.296+38.022C176.564+38.022+176.011+37.832+175.631+37.448C175.252+37.065+175.062+36.504+175.062+35.767L175.062+32.898L175.941+32.898ZM181.21+29.488L182.07+29.488L182.07+37.813L181.21+37.813L181.21+29.488ZM187.593+35.402C187.593+34.847+187.44+34.4+187.138+34.062C186.835+33.723+186.44+33.554+185.953+33.554C185.449+33.554+185.055+33.71+184.772+34.022C184.488+34.334+184.348+34.768+184.348+35.327C184.348+35.921+184.49+36.38+184.774+36.7C185.059+37.023+185.464+37.185+185.986+37.185C186.486+37.185+186.881+37.028+187.165+36.715C187.449+36.401+187.593+35.963+187.593+35.402M188.408+32.898L188.408+37.813L187.593+37.813L187.593+36.921C187.396+37.28+187.143+37.553+186.837+37.74C186.53+37.929+186.187+38.022+185.809+38.022C185.103+38.022+184.534+37.78+184.104+37.295C183.673+36.81+183.456+36.167+183.456+35.369C183.456+34.561+183.665+33.917+184.085+33.439C184.503+32.96+185.064+32.722+185.767+32.722C186.177+32.722+186.534+32.814+186.837+32.999C187.14+33.182+187.385+33.457+187.57+33.822L187.57+32.898L188.408+32.898ZM190.1+37.813L190.1+32.898L190.847+32.898L190.847+33.921C191.072+33.494+191.312+33.19+191.566+33.006C191.82+32.824+192.13+32.733+192.494+32.733C192.596+32.733+192.692+32.74+192.786+32.757C192.878+32.773+192.972+32.797+193.064+32.828L192.786+33.588C192.688+33.554+192.598+33.53+192.511+33.514C192.425+33.5+192.343+33.49+192.266+33.49C191.82+33.49+191.488+33.651+191.267+33.971C191.044+34.292+190.933+34.774+190.933+35.419L190.933+37.813L190.1+37.813Z" opacity="1" fill="#6f7173"/>
</g>
</g>
</g>
</g>
<g id="Capa 1 copy" vectornator:layerName="Capa 1 copy">
<path d="M132.786+6.1344L104.432+6.1344C94.7674+6.1344+86.8614+14.0414+86.8614+23.7054L86.8614+51.9974L115.954+51.9974C125.212+51.9974+132.786+44.4234+132.786+35.1664L132.786+6.1344ZM126.371+12.5404L104.424+12.5404C98.2924+12.5404+93.2754+17.5564+93.2754+23.6884L93.2754+45.5914L115.799+45.5914C121.613+45.5914+126.371+40.8344+126.371+35.0184L126.371+12.5404Z" opacity="1" fill="#f3722a"/>
<path d="M46.3357+20.2267L65.9777+20.2267C72.6717+20.2267+78.1487+25.7047+78.1487+32.3987L78.1487+51.9977L57.9947+51.9977C51.5827+51.9977+46.3357+46.7507+46.3357+40.3377L46.3357+20.2267Z" opacity="1" fill="#a7cf3e"/>
<path d="M39.3835+57.4576C37.5935+53.5786+35.2815+50.6846+32.4395+48.7666C29.5965+46.8486+26.1715+45.8976+22.1725+45.8976C19.6545+45.9066+17.3085+46.3526+15.1505+47.2506C12.9845+48.1496+11.0235+49.4606+9.27646+51.1896C7.40146+53.0736+5.97946+55.1456+5.02046+57.4146C4.06146+59.6846+3.57346+62.0996+3.57346+64.6506C3.58147+67.1766+3.98446+69.5316+4.78046+71.7236C5.58546+73.9066+6.75846+75.8686+8.30046+77.5986C10.1495+79.6796+12.2385+81.2456+14.5595+82.2906C16.8715+83.3436+19.3975+83.8656+22.1205+83.8656C26.0765+83.8656+29.4765+82.9336+32.3195+81.0576C35.1625+79.1906+37.4315+76.3906+39.1265+72.6656L30.3925+72.6656C29.4845+73.9336+28.3205+74.8926+26.9075+75.5606C25.4865+76.2286+23.8765+76.5616+22.0695+76.5696C20.5455+76.5616+19.1145+76.2706+17.7795+75.6886C16.4435+75.1056+15.2615+74.2836+14.2515+73.2226C13.2325+72.1696+12.4275+70.9186+11.8535+69.4796C11.2795+68.0506+10.9805+66.4666+10.9715+64.7536C10.9715+63.7516+11.0995+62.7676+11.3575+61.7816C11.6135+60.8066+11.9995+59.8636+12.5045+58.9656C13.0015+58.0656+13.6265+57.2346+14.3625+56.4816C15.3985+55.4196+16.5715+54.6236+17.8905+54.0756C19.2005+53.5196+20.5965+53.2446+22.0695+53.2446C23.9445+53.2446+25.5895+53.6126+27.0185+54.3326C28.4405+55.0426+29.6475+56.0876+30.6495+57.4576L39.3835+57.4576ZM56.3895+61.1566L56.3895+55.1456C54.9085+55.1456+53.5895+55.4456+52.4425+56.0356C51.2865+56.6356+50.2415+57.5346+49.2995+58.7416L49.2995+55.5576L43.2885+55.5576L43.2885+83.1466L49.7105+83.1466L49.7105+69.0686C49.7015+67.7846+49.7965+66.6716+49.9845+65.7216C50.1735+64.7696+50.5075+63.9826+50.9865+63.3406C51.4745+62.6986+52.1515+62.2016+53.0245+61.8426C53.9065+61.4816+55.0195+61.2596+56.3895+61.1566M63.9935+71.3816L86.0865+71.3816C86.0865+71.1496+86.0945+70.9186+86.1115+70.6876C86.1295+70.4566+86.1375+70.2256+86.1375+69.9936C86.1455+68.1786+85.9405+66.5176+85.5205+65.0276C85.1015+63.5376+84.4335+62.1766+83.5175+60.9516C82.5495+59.6246+81.4455+58.5026+80.1955+57.5776C78.9535+56.6526+77.5915+55.9506+76.1355+55.4716C74.6715+54.9826+73.1475+54.7346+71.5465+54.7346C69.6285+54.7436+67.7955+55.1376+66.0405+55.9256C64.2845+56.7216+62.7005+57.8596+61.2705+59.3586C59.9865+60.7286+59.0095+62.2536+58.3595+63.9396C57.6995+65.6356+57.3655+67.4416+57.3655+69.3776C57.3655+70.6186+57.5285+71.8436+57.8545+73.0516C58.1705+74.2676+58.6335+75.4226+59.2495+76.5276C59.8575+77.6236+60.6025+78.6346+61.4765+79.5506C62.8635+80.9886+64.4305+82.0676+66.1605+82.7866C67.8895+83.5066+69.7735+83.8656+71.8025+83.8656C73.8495+83.8566+75.7335+83.4886+77.4635+82.7526C79.1845+82.0076+80.6995+80.9296+82.0095+79.5166C83.3115+78.1036+84.3645+76.3906+85.1615+74.3606L78.2255+74.3606C77.5485+75.4746+76.6325+76.3216+75.4935+76.9126C74.3555+77.5036+73.0785+77.7946+71.6495+77.8036C70.1845+77.7946+68.9085+77.5386+67.8125+77.0156C66.7165+76.5016+65.8435+75.7656+65.1925+74.8066C64.5325+73.8476+64.1395+72.7086+63.9935+71.3816M79.2015+66.2946L64.1995+66.2946C64.5325+65.1396+65.0645+64.1446+65.7835+63.2976C66.5025+62.4586+67.3595+61.7996+68.3525+61.3456C69.3455+60.8836+70.4075+60.6516+71.5465+60.6436C73.5075+60.6436+75.1335+61.1226+76.4355+62.0816C77.7375+63.0326+78.6535+64.4366+79.2015+66.2946M109.976+65.3696L116.81+65.3696C116.407+63.7176+115.782+62.2446+114.943+60.9346C114.104+59.6246+113.085+58.5116+111.886+57.5866C110.687+56.6616+109.351+55.9596+107.87+55.4716C106.397+54.9826+104.821+54.7346+103.143+54.7346C101.053+54.7346+99.1195+55.1286+97.3205+55.9076C95.5225+56.6866+93.9045+57.8436+92.4575+59.3586C91.1465+60.7286+90.1625+62.2536+89.4945+63.9396C88.8355+65.6356+88.5015+67.4416+88.5015+69.3776C88.5015+70.6026+88.6635+71.8176+88.9895+73.0336C89.3055+74.2406+89.7765+75.4056+90.3935+76.5106C91.0185+77.6236+91.7715+78.6346+92.6625+79.5506C94.0505+80.9636+95.6165+82.0426+97.3545+82.7696C99.0845+83.4976+100.985+83.8656+103.041+83.8656C105.361+83.8566+107.459+83.4206+109.317+82.5646C111.175+81.6996+112.742+80.4666+114.009+78.8486C115.285+77.2376+116.202+75.2946+116.758+73.0246L109.925+73.0246C108.795+76.0056+106.483+77.4956+102.989+77.4956C101.85+77.4866+100.805+77.2806+99.8555+76.8786C98.8965+76.4676+98.0655+75.9026+97.3635+75.1656C96.6615+74.4296+96.1135+73.5646+95.7195+72.5716C95.3345+71.5866+95.1365+70.4996+95.1295+69.3256C95.1365+68.1096+95.3345+67.0056+95.7195+65.9946C96.1045+64.9846+96.6445+64.1196+97.3385+63.3746C98.0315+62.6386+98.8445+62.0726+99.7695+61.6626C100.694+61.2596+101.696+61.0546+102.783+61.0546C104.427+61.0546+105.841+61.4136+107.04+62.1336C108.229+62.8526+109.206+63.9316+109.976+65.3696M126.263+71.3816L148.355+71.3816C148.355+71.1496+148.364+70.9186+148.382+70.6876C148.398+70.4566+148.407+70.2256+148.407+69.9936C148.416+68.1786+148.21+66.5176+147.791+65.0276C147.371+63.5376+146.703+62.1766+145.787+60.9516C144.819+59.6246+143.715+58.5026+142.465+57.5776C141.222+56.6526+139.861+55.9506+138.406+55.4716C136.941+54.9826+135.417+54.7346+133.816+54.7346C131.898+54.7436+130.065+55.1376+128.309+55.9256C126.554+56.7216+124.97+57.8596+123.54+59.3586C122.256+60.7286+121.279+62.2536+120.629+63.9396C119.969+65.6356+119.635+67.4416+119.635+69.3776C119.635+70.6186+119.799+71.8436+120.124+73.0516C120.44+74.2676+120.903+75.4226+121.519+76.5276C122.128+77.6236+122.873+78.6346+123.746+79.5506C125.133+80.9886+126.7+82.0676+128.429+82.7866C130.159+83.5066+132.043+83.8656+134.072+83.8656C136.119+83.8566+138.003+83.4886+139.733+82.7526C141.454+82.0076+142.969+80.9296+144.28+79.5166C145.581+78.1036+146.634+76.3906+147.431+74.3606L140.495+74.3606C139.818+75.4746+138.902+76.3216+137.763+76.9126C136.625+77.5036+135.348+77.7946+133.919+77.8036C132.454+77.7946+131.178+77.5386+130.082+77.0156C128.986+76.5016+128.113+75.7656+127.462+74.8066C126.802+73.8476+126.409+72.7086+126.263+71.3816M141.471+66.2946L126.468+66.2946C126.802+65.1396+127.334+64.1446+128.052+63.2976C128.772+62.4586+129.629+61.7996+130.622+61.3456C131.615+60.8836+132.677+60.6516+133.816+60.6436C135.777+60.6436+137.403+61.1226+138.705+62.0816C140.007+63.0326+140.923+64.4366+141.471+66.2946M165.258+61.1566L165.258+55.1456C163.778+55.1456+162.459+55.4456+161.311+56.0356C160.155+56.6356+159.111+57.5346+158.169+58.7416L158.169+55.5576L152.158+55.5576L152.158+83.1466L158.58+83.1466L158.58+69.0686C158.571+67.7846+158.666+66.6716+158.854+65.7216C159.042+64.7696+159.377+63.9826+159.856+63.3406C160.343+62.6986+161.02+62.2016+161.893+61.8426C162.776+61.4816+163.888+61.2596+165.258+61.1566" opacity="1" fill="#024e91"/>
<path d="M28.0056+63.4615C27.9676+63.6435+27.9296+63.8235+27.8916+64.0055C27.8986+64.0065+27.9046+64.0075+27.9116+64.0085C28.0266+63.8365+28.0736+63.6565+28.0056+63.4615M36.6076+67.4925L36.6076+67.6905C36.5886+67.7005+36.5676+67.7115+36.5516+67.7255C36.5046+67.7665+36.4596+67.8055+36.3876+67.7675C36.3706+67.7925+36.3576+67.8145+36.3426+67.8365C36.1866+67.7235+36.1726+67.5675+36.1666+67.4275C36.1596+67.2745+36.0876+67.1495+36.0106+67.0205C35.9466+66.9135+35.8596+66.8145+35.8116+66.7035C35.7746+66.6185+35.7076+66.5695+35.6296+66.5205C35.5906+66.4965+35.5536+66.4715+35.5186+66.4445C35.4846+66.4185+35.4506+66.4105+35.4216+66.4435C35.3816+66.4905+35.3536+66.4725+35.3216+66.4395C35.2736+66.3885+35.2266+66.3365+35.1756+66.2865C35.1596+66.2725+35.1326+66.2635+35.1106+66.2515C35.1026+66.2735+35.0926+66.2935+35.0866+66.3155C35.0656+66.4005+35.0436+66.4865+35.0256+66.5735C35.0136+66.6295+34.9976+66.6885+35.0036+66.7445C35.0256+66.9615+35.0556+67.1775+35.0846+67.3945C35.0866+67.4175+35.0896+67.4445+35.1066+67.4595C35.2346+67.5735+35.1556+67.6935+35.1156+67.8085C35.1006+67.8515+35.0986+67.8755+35.1316+67.9085C35.1776+67.9525+35.1986+68.0005+35.1526+68.0575C35.1236+68.0935+35.1336+68.1295+35.1636+68.1675C35.1876+68.1975+35.1986+68.2365+35.2026+68.2735C35.2276+68.5295+35.1996+68.7895+35.2686+69.0445C35.2756+69.0695+35.2586+69.1005+35.2496+69.1275C35.2346+69.1725+35.2006+69.2165+35.2006+69.2615C35.1936+69.5455+35.1716+69.8275+35.0856+70.1045C35.0626+70.1775+35.0666+70.2375+35.1226+70.2985C35.2126+70.3975+35.2146+70.4335+35.1316+70.5365C35.0926+70.5845+35.0946+70.6225+35.1276+70.6745C35.1766+70.7525+35.2396+70.8305+35.2136+70.9295C35.2036+70.9655+35.1926+70.9925+35.1376+70.9895C34.9556+70.9805+34.7746+70.9715+34.5916+70.9655C34.5276+70.9625+34.5066+70.9355+34.5076+70.8895C34.5096+70.8325+34.5156+70.7755+34.5146+70.7195C34.5146+70.6905+34.5056+70.6625+34.4926+70.6365C34.4716+70.5915+34.4366+70.5495+34.4216+70.5025C34.3986+70.4325+34.3856+70.3585+34.3726+70.2865C34.3576+70.2075+34.3476+70.1295+34.4016+70.0545C34.4236+70.0245+34.4346+69.9865+34.4366+69.9525C34.4506+69.7155+34.4636+69.4795+34.4706+69.2415C34.4716+69.1895+34.4526+69.1345+34.4296+69.0845C34.4096+69.0395+34.4086+69.0015+34.4366+68.9595C34.4536+68.9315+34.4636+68.8965+34.4656+68.8645C34.4756+68.7455+34.4276+68.6385+34.3756+68.5295C34.3376+68.4525+34.3176+68.3705+34.2846+68.2925C34.2756+68.2705+34.2516+68.2515+34.2346+68.2325C34.2206+68.2525+34.1986+68.2715+34.1936+68.2925C34.1636+68.4225+34.1366+68.5525+34.1096+68.6825C34.0836+68.8065+34.0566+68.9305+34.0326+69.0545C34.0126+69.1605+34.0726+69.2725+34.0116+69.3775C34.0076+69.3835+34.0136+69.3935+34.0146+69.4015C34.0176+69.4515+34.0226+69.5015+34.0226+69.5515C34.0206+69.6455+33.9966+69.7425+34.0176+69.8335C34.0486+69.9725+34.0006+70.0775+33.8966+70.1815C33.8346+70.2425+33.7716+70.3095+33.7736+70.3985C33.7766+70.4725+33.7746+70.5455+33.7766+70.6185C33.7796+70.7335+33.7136+70.8155+33.5966+70.8685C33.4316+70.9445+33.1976+70.8525+33.1916+70.7035C33.1836+70.5385+33.1946+70.3735+33.3526+70.2465C33.3956+70.2115+33.3896+70.1775+33.3606+70.1335C33.3346+70.0935+33.3196+70.0445+33.3156+69.9985C33.3076+69.9155+33.3116+69.8305+33.3096+69.7465C33.3086+69.6805+33.3066+69.6135+33.3036+69.5475C33.3016+69.4875+33.3126+69.4225+33.2876+69.3685C33.2646+69.3165+33.2606+69.2745+33.2766+69.2245C33.3086+69.1215+33.3966+69.0315+33.3836+68.9185C33.3666+68.7745+33.3486+68.6305+33.3286+68.4865C33.3096+68.3475+33.2806+68.2085+33.2696+68.0685C33.2576+67.9435+33.2646+67.8165+33.2626+67.6905C33.2626+67.6475+33.2446+67.6155+33.1906+67.5915C33.0766+67.5425+33.0676+67.4775+33.1426+67.3945C33.1656+67.3685+33.1836+67.3355+33.1916+67.3045C33.2306+67.1645+33.2606+67.0245+33.3006+66.8855C33.3836+66.6055+33.4666+66.3245+33.6246+66.0645C33.6416+66.0355+33.6506+66.0035+33.6626+65.9735L33.5586+66.0255C33.5296+66.0405+33.5056+66.0775+33.4626+66.0455C33.4096+66.0065+33.3646+66.0245+33.3126+66.0515C33.1926+66.1125+33.0696+66.1715+32.9446+66.2265C32.9146+66.2385+32.8676+66.2425+32.8356+66.2325C32.7556+66.2095+32.6716+66.1865+32.6066+66.1445C32.3596+65.9825+32.1216+65.8145+31.8786+65.6495C31.8576+65.6345+31.8236+65.6155+31.8006+65.6195C31.7036+65.6365+31.6316+65.5945+31.5516+65.5655C31.4776+65.5385+31.4606+65.4985+31.4676+65.4415C31.4926+65.2725+31.5136+65.1015+31.5996+64.9415C31.6336+64.8795+31.6356+64.8175+31.5966+64.7535C31.5666+64.7035+31.5446+64.6495+31.5196+64.5975C31.4366+64.4285+31.3606+64.2575+31.2716+64.0905C31.1876+63.9345+31.0846+63.7835+31.0806+63.6055C31.0796+63.5725+31.0556+63.5345+31.0286+63.5095C30.9436+63.4255+30.9086+63.3255+30.8866+63.2225C30.8646+63.1155+30.8656+63.1125+30.7456+63.1475C30.6906+63.1615+30.6746+63.1465+30.6616+63.1055C30.6306+63.0075+30.5946+62.9115+30.5576+62.8155C30.5506+62.7985+30.5276+62.7845+30.5116+62.7695C30.4946+62.8025+30.4906+62.8285+30.4946+62.8545C30.5126+62.9895+30.5356+63.1245+30.5526+63.2605C30.5866+63.5425+30.6376+63.8225+30.6086+64.1075C30.6086+64.1135+30.6096+64.1205+30.6096+64.1265C30.6256+64.3535+30.6406+64.5795+30.6576+64.8065C30.6616+64.8615+30.6466+64.8965+30.5686+64.8925C30.4906+64.8885+30.4576+64.9215+30.4646+64.9835C30.4666+65.0055+30.4646+65.0255+30.4656+65.0475C30.4826+65.3035+30.5046+65.5595+30.5136+65.8145C30.5226+66.0565+30.5166+66.2975+30.5176+66.5395C30.5186+66.6965+30.5376+66.8525+30.5906+67.0055C30.6056+67.0475+30.6016+67.1055+30.5786+67.1445C30.4976+67.2805+30.4826+67.4175+30.5286+67.5645C30.5496+67.6325+30.5476+67.7065+30.5446+67.7765C30.5376+67.9575+30.5276+68.1385+30.5136+68.3185C30.5076+68.4005+30.5036+68.4875+30.4736+68.5655C30.3686+68.8375+30.3356+69.1135+30.3826+69.3975C30.3886+69.4315+30.3876+69.4705+30.3736+69.5015C30.3446+69.5675+30.3676+69.6255+30.3856+69.6895C30.4136+69.7875+30.4386+69.8905+30.4326+69.9905C30.4256+70.1315+30.3906+70.2715+30.3656+70.4115C30.3526+70.4925+30.3426+70.5735+30.2776+70.6445C30.1956+70.7325+30.0556+70.7725+29.9296+70.7375C29.7936+70.6995+29.7336+70.6005+29.6606+70.5105C29.6096+70.4465+29.6126+70.3795+29.6266+70.3055C29.6556+70.1375+29.6786+69.9685+29.6936+69.7985C29.6976+69.7635+29.6676+69.7195+29.6386+69.6905C29.6006+69.6525+29.5476+69.6245+29.5006+69.5935C29.4896+69.5865+29.4716+69.5805+29.4606+69.5835C29.4506+69.5865+29.4396+69.6025+29.4406+69.6125C29.4446+69.6835+29.4396+69.7575+29.4626+69.8235C29.5566+70.0895+29.5176+70.3555+29.4816+70.6215C29.4786+70.6405+29.4716+70.6625+29.4566+70.6735C29.4066+70.7125+29.4016+70.7605+29.4056+70.8125C29.4096+70.8605+29.3756+70.8815+29.3196+70.8895C29.2416+70.9005+29.1646+70.9185+29.0866+70.9345C29.0546+70.9405+29.0226+70.9515+28.9906+70.9505C28.7906+70.9445+28.5916+70.9365+28.3916+70.9265C28.3376+70.9245+28.3056+70.8965+28.2956+70.8515C28.2746+70.7515+28.3356+70.6495+28.4436+70.6045C28.5766+70.5475+28.5926+70.4445+28.4806+70.3635C28.4136+70.3155+28.4126+70.2815+28.4646+70.2185C28.4816+70.1975+28.4956+70.1665+28.4886+70.1455C28.4716+70.0915+28.4446+70.0405+28.4166+69.9905C28.3786+69.9255+28.3276+69.8635+28.2976+69.7955C28.2226+69.6285+28.2656+69.4525+28.2556+69.2805C28.2446+69.0695+28.2756+68.8575+28.2766+68.6455C28.2766+68.4175+28.2646+68.1895+28.2536+67.9605C28.2506+67.9155+28.2286+67.8715+28.2086+67.8295C28.1706+67.7495+28.1276+67.6715+28.1396+67.5815C28.1466+67.5245+28.1456+67.4685+28.1416+67.4115C28.1216+67.1355+28.1026+66.8575+28.0776+66.5815C28.0636+66.4255+28.0496+66.2675+28.0126+66.1125C27.9756+65.9575+27.9076+65.8075+27.8586+65.6535C27.7866+65.4325+27.7616+65.2075+27.8186+64.9815C27.8306+64.9385+27.8336+64.8995+27.7846+64.8675C27.7696+64.8575+27.7596+64.8295+27.7636+64.8115C27.7936+64.6485+27.8286+64.4835+27.8596+64.3205C27.8656+64.2835+27.8646+64.2455+27.8666+64.2075C27.8566+64.2065+27.8456+64.2045+27.8346+64.2025C27.7956+64.3015+27.7556+64.3985+27.7156+64.4965C27.6496+64.6565+27.5876+64.8185+27.5156+64.9785C27.4626+65.0955+27.3846+65.2055+27.4036+65.3385C27.4166+65.4305+27.4136+65.5245+27.4286+65.6145C27.4476+65.7335+27.3776+65.8395+27.3296+65.9375C27.2696+66.0605+27.1246+66.1355+26.9436+66.1325C26.8426+66.1295+26.7686+66.0675+26.7806+65.9835C26.7856+65.9465+26.7776+65.9175+26.7246+65.9205C26.6706+65.9245+26.6596+65.8955+26.6686+65.8655C26.6996+65.7695+26.6776+65.6755+26.6686+65.5785C26.6646+65.5345+26.6786+65.4875+26.6916+65.4425C26.7266+65.3155+26.7716+65.1905+26.7506+65.0585C26.7226+64.8815+26.6996+64.7065+26.6286+64.5345C26.5276+64.2915+26.4606+64.0395+26.3776+63.7915C26.3706+63.7715+26.3556+63.7535+26.3346+63.7195C26.3156+63.7525+26.3026+63.7675+26.2986+63.7835C26.2736+63.8835+26.2196+63.9645+26.1076+64.0135C26.0916+64.0205+26.0776+64.0385+26.0756+64.0535C26.0596+64.1285+26.0686+64.1985+26.1066+64.2735C26.1966+64.4505+26.2866+64.6295+26.3486+64.8145C26.4336+65.0635+26.4156+65.3225+26.3866+65.5775C26.3506+65.8895+26.2916+66.1975+26.2416+66.5085C26.2106+66.6965+26.1736+66.8855+26.1446+67.0745C26.1166+67.2575+26.0766+67.4375+26.1076+67.6255C26.1516+67.8835+26.1516+68.1465+26.1046+68.4035C26.0826+68.5235+26.0946+68.6455+26.0296+68.7605C25.9976+68.8185+26.0036+68.8915+25.9906+68.9575C25.9836+68.9955+25.9716+69.0295+25.9186+69.0445C25.8996+69.0495+25.8806+69.0715+25.8746+69.0895C25.8596+69.1385+25.8476+69.1885+25.8416+69.2375C25.8186+69.4245+25.7996+69.6105+25.7796+69.7985C25.7776+69.8185+25.7766+69.8435+25.7886+69.8595C25.8436+69.9415+25.8206+70.0295+25.8256+70.1165C25.8286+70.1615+25.8406+70.2075+25.8596+70.2485C25.9066+70.3535+25.9556+70.4565+25.9526+70.5695C25.9506+70.6235+25.9306+70.6715+25.8586+70.6745C25.6996+70.6805+25.5416+70.6805+25.3826+70.6785C25.3556+70.6785+25.3206+70.6595+25.3016+70.6405C25.2236+70.5625+25.2446+70.4735+25.2696+70.3835C25.3086+70.2455+25.3456+70.1125+25.2366+69.9785C25.1626+69.8855+25.1686+69.7765+25.2276+69.6715C25.2576+69.6195+25.2926+69.5635+25.2956+69.5075C25.3026+69.3855+25.2946+69.2615+25.2876+69.1385C25.2856+69.1125+25.2686+69.0865+25.2506+69.0655C25.2426+69.0545+25.2146+69.0475+25.1986+69.0505C25.1886+69.0515+25.1746+69.0725+25.1756+69.0845C25.1776+69.1255+25.1746+69.1585+25.1136+69.1705C25.0986+69.1735+25.0836+69.2025+25.0806+69.2215C25.0676+69.2995+25.0566+69.3785+25.0486+69.4575C25.0466+69.4855+25.0466+69.5175+25.0556+69.5445C25.0876+69.6435+25.0916+69.7415+25.0726+69.8435C25.0676+69.8715+25.0726+69.9015+25.0736+69.9315C25.0776+69.9995+25.0786+70.0685+25.0866+70.1385C25.1036+70.2865+25.0186+70.4425+25.1396+70.5835C25.1466+70.5925+25.1456+70.6085+25.1436+70.6205C25.1206+70.7635+25.0856+70.8455+24.8996+70.8575C24.8896+70.8585+24.8796+70.8625+24.8696+70.8635C24.7076+70.8865+24.5566+70.8555+24.4216+70.7825C24.3166+70.7265+24.2896+70.5705+24.3546+70.4785C24.3696+70.4565+24.3826+70.4335+24.3896+70.4085C24.4086+70.3415+24.4256+70.2735+24.4416+70.2055C24.4646+70.0995+24.4936+69.9925+24.5076+69.8845C24.5356+69.6695+24.4856+69.4585+24.4296+69.2495C24.4226+69.2215+24.4026+69.1845+24.3756+69.1725C24.3196+69.1475+24.3026+69.1115+24.2996+69.0655C24.2976+68.9965+24.2966+68.9285+24.2896+68.8595C24.2856+68.8065+24.2676+68.7535+24.2656+68.7005C24.2636+68.6165+24.2746+68.5335+24.2726+68.4505C24.2706+68.3465+24.2566+68.2415+24.2556+68.1375C24.2536+68.0335+24.2486+67.9325+24.1906+67.8385C24.1656+67.7975+24.1436+67.7535+24.1316+67.7095C24.0746+67.5095+24.0186+67.3085+23.9686+67.1075C23.9316+66.9555+23.8976+66.8035+23.8756+66.6495C23.8496+66.4645+23.8376+66.2775+23.8186+66.0915C23.8166+66.0665+23.8136+66.0415+23.8066+66.0175C23.7766+65.8965+23.7446+65.7745+23.7136+65.6535C23.6026+65.2075+23.7236+64.7945+23.9916+64.4075C24.0716+64.2905+24.1306+64.1765+24.1196+64.0425C24.1176+64.0215+24.1046+63.9875+24.0866+63.9825C24.0186+63.9595+23.9866+63.9175+23.9726+63.8645C23.9566+63.8035+23.9456+63.7405+23.9356+63.6785C23.9246+63.6155+23.9176+63.5535+23.9076+63.4905L23.8866+63.4915C23.8786+63.5705+23.8746+63.6495+23.8596+63.7285C23.8486+63.7825+23.8336+63.8405+23.8016+63.8895C23.7786+63.9235+23.7286+63.9505+23.6836+63.9685C23.5816+64.0115+23.4736+64.0455+23.3686+64.0835C23.3636+64.0855+23.3616+64.0895+23.3576+64.0925C23.2236+64.1695+23.0896+64.2465+22.9556+64.3225C22.9266+64.3395+22.8906+64.3465+22.8626+64.3635C22.8306+64.3835+22.8016+64.4075+22.7766+64.4335C22.7586+64.4505+22.7516+64.4755+22.7376+64.4945C22.5886+64.7115+22.3886+64.8955+22.1876+65.0775C22.1706+65.0935+22.1506+65.1085+22.1276+65.1145C22.0396+65.1375+21.9506+65.1615+21.8606+65.1745C21.7896+65.1835+21.7466+65.1995+21.7516+65.2675C21.7536+65.3005+21.7446+65.3335+21.7406+65.3675C21.7366+65.4095+21.7116+65.4285+21.6596+65.4345C21.5716+65.4415+21.4836+65.4535+21.3986+65.4715C21.2766+65.4945+21.2786+65.4985+21.2766+65.6035C21.2706+65.8125+21.3346+66.0215+21.2726+66.2305C21.2696+66.2415+21.2756+66.2555+21.2786+66.2675C21.3236+66.4265+21.3726+66.5845+21.4136+66.7445C21.4476+66.8815+21.4756+67.0215+21.5036+67.1585C21.5126+67.2005+21.4966+67.2325+21.4436+67.2495C21.3996+67.2645+21.3886+67.2905+21.3946+67.3305C21.4036+67.3905+21.4156+67.4515+21.4086+67.5125C21.3966+67.6105+21.4026+67.7045+21.4316+67.8035C21.5356+68.1645+21.5656+68.5325+21.5246+68.9035C21.5166+68.9755+21.4896+69.0275+21.4176+69.0665C21.3686+69.0935+21.3426+69.1305+21.3466+69.1845C21.3496+69.2275+21.3366+69.2715+21.3366+69.3155C21.3386+69.4085+21.3276+69.5055+21.3516+69.5955C21.3806+69.7055+21.4426+69.8105+21.4846+69.9185C21.5046+69.9675+21.5166+70.0205+21.5226+70.0715C21.5266+70.1075+21.5316+70.1615+21.5066+70.1805C21.4376+70.2305+21.3996+70.3155+21.2686+70.3055C21.1676+70.2965+21.0476+70.2675+21.0136+70.1885C20.9506+70.0395+20.9566+69.8845+20.9626+69.7305C20.9666+69.6225+21.0166+69.5145+20.9556+69.4075C20.9466+69.3925+20.9336+69.3765+20.9226+69.3605C20.9156+69.3805+20.9056+69.3985+20.9016+69.4185C20.8936+69.4595+20.9056+69.5175+20.8766+69.5395C20.8326+69.5745+20.8136+69.6115+20.8346+69.6485C20.8816+69.7335+20.8696+69.8235+20.8796+69.9115C20.8916+70.0175+20.9186+70.1215+20.9396+70.2275C20.9636+70.3445+20.9906+70.4605+21.0126+70.5785C21.0186+70.6105+21.0196+70.6495+21.0036+70.6785C20.9636+70.7495+20.9156+70.8175+20.8656+70.8845C20.7846+70.9935+20.6676+71.0375+20.5126+71.0215C20.3486+71.0045+20.2576+70.9215+20.2966+70.8075C20.3376+70.6835+20.3896+70.5615+20.4306+70.4365C20.4516+70.3715+20.4786+70.2995+20.4656+70.2355C20.4306+70.0615+20.3776+69.8895+20.3256+69.7175C20.3196+69.6955+20.2846+69.6715+20.2566+69.6655C20.1986+69.6505+20.1376+69.6495+20.0776+69.6405C20.0296+69.6335+19.9906+69.6165+19.9896+69.5675C19.9836+69.2535+19.9776+68.9395+19.9706+68.6235C19.9696+68.6015+19.9706+68.5725+19.9556+68.5575C19.8826+68.4825+19.9036+68.3955+19.9016+68.3105C19.9006+68.2615+19.9016+68.2085+19.8816+68.1635C19.7936+67.9635+19.7446+67.7565+19.7146+67.5455C19.7096+67.5005+19.6886+67.4755+19.6306+67.4755C19.6046+67.4765+19.5796+67.4725+19.5546+67.4695C19.5026+67.4645+19.4776+67.4395+19.4836+67.3965C19.5026+67.2395+19.5266+67.0835+19.5406+66.9265C19.5506+66.8115+19.6106+66.6895+19.4966+66.5835C19.4886+66.5765+19.4886+66.5645+19.4866+66.5535C19.4566+66.3725+19.4276+66.1925+19.3966+66.0125C19.3936+65.9935+19.3806+65.9755+19.3716+65.9565C19.3476+65.9665+19.3196+65.9715+19.3016+65.9855C19.2076+66.0615+19.1156+66.1395+19.0236+66.2175C18.9846+66.2505+18.9506+66.2805+18.8826+66.2545C18.8526+66.2425+18.8046+66.2605+18.7656+66.2685C18.7346+66.2745+18.7036+66.2895+18.6726+66.2895C18.4036+66.2895+18.1366+66.2885+17.8676+66.2865C17.7766+66.2855+17.6866+66.2795+17.6096+66.3355C17.5866+66.3535+17.5536+66.3675+17.5226+66.3715C17.4356+66.3845+17.3806+66.4325+17.3266+66.4825C17.3056+66.5005+17.2886+66.5235+17.2646+66.5375C17.2436+66.5495+17.2136+66.5525+17.1886+66.5585C17.1966+66.5395+17.2036+66.5205+17.2136+66.5025C17.2396+66.4605+17.3046+66.4375+17.3026+66.3735C17.2766+66.3795+17.2576+66.3815+17.2436+66.3885C17.1766+66.4205+17.1106+66.4565+17.0426+66.4865C17.0216+66.4955+16.9916+66.4895+16.9656+66.4905C16.9786+66.4705+16.9846+66.4425+17.0036+66.4315C17.0616+66.3985+17.1256+66.3725+17.1836+66.3395C17.2036+66.3275+17.2136+66.3025+17.2286+66.2835C17.2226+66.2805+17.2166+66.2765+17.2106+66.2745C17.0766+66.3015+16.9426+66.3295+16.8096+66.3575L16.8096+66.2945C16.9296+66.2635+17.0496+66.2325+17.1696+66.2015C17.1666+66.1905+17.1636+66.1795+17.1616+66.1685C17.0436+66.1815+16.9266+66.1935+16.8096+66.2065L16.8096+66.1305C16.9336+66.1165+17.0586+66.1035+17.1826+66.0875C17.2246+66.0825+17.2676+66.0735+17.3066+66.0625C17.3246+66.0565+17.3466+66.0365+17.3476+66.0225C17.3486+66.0095+17.3256+65.9925+17.3086+65.9825C17.2726+65.9635+17.2286+65.9515+17.1976+65.9295C17.1786+65.9145+17.1776+65.8845+17.1686+65.8605C17.1936+65.8625+17.2236+65.8595+17.2476+65.8675C17.4496+65.9425+17.6466+66.0305+17.8816+65.9895C17.9256+65.9825+17.9716+65.9825+18.0176+65.9805C18.1486+65.9715+18.2796+65.9645+18.4106+65.9525C18.5056+65.9445+18.5556+65.8885+18.5576+65.8115C18.5576+65.7885+18.5776+65.7595+18.5996+65.7435C18.7766+65.6205+18.9376+65.4875+19.0466+65.3135C19.0866+65.2495+19.1556+65.1895+19.2296+65.1515C19.4056+65.0625+19.5926+64.9875+19.7766+64.9075C19.8146+64.8925+19.8526+64.8815+19.8476+64.8375C19.8426+64.7945+19.8206+64.7635+19.7696+64.7465C19.7346+64.7345+19.6946+64.7205+19.6746+64.6975C19.6116+64.6205+19.5456+64.5425+19.4996+64.4585C19.4506+64.3645+19.4236+64.2635+19.4806+64.1605C19.4936+64.1365+19.4916+64.1075+19.5026+64.0815C19.5256+64.0285+19.5386+63.9695+19.5776+63.9275C19.6466+63.8535+19.7296+63.7875+19.8126+63.7225C19.8346+63.7055+19.8756+63.6975+19.9076+63.6965C19.9726+63.6955+20.0386+63.7055+20.1036+63.7065C20.3046+63.7075+20.4766+63.7755+20.6336+63.8705C20.7146+63.9195+20.7646+63.9865+20.7646+64.0745C20.7646+64.1285+20.7756+64.1845+20.7686+64.2375C20.7556+64.3435+20.7846+64.4655+20.6356+64.5305C20.6206+64.5375+20.6156+64.5605+20.6026+64.5725C20.5856+64.5895+20.5686+64.6125+20.5456+64.6185C20.4736+64.6395+20.4846+64.6835+20.4926+64.7275C20.5016+64.7785+20.5506+64.7695+20.5926+64.7695C20.6286+64.7695+20.6636+64.7705+20.6996+64.7715C20.9946+64.7845+21.2896+64.7985+21.5856+64.8135C21.6106+64.8145+21.6346+64.8185+21.6606+64.8205C21.7506+64.8255+21.8406+64.8355+21.9306+64.8315C21.9706+64.8295+22.0186+64.8065+22.0476+64.7795C22.1546+64.6825+22.2476+64.5735+22.3606+64.4815C22.4676+64.3945+22.5146+64.3005+22.5026+64.1745C22.4846+63.9975+22.5956+63.8775+22.7836+63.8005C22.8566+63.7705+22.9416+63.7515+22.9656+63.6665C22.9876+63.5895+23.0336+63.5185+23.1256+63.4765C23.1426+63.4685+23.1566+63.4385+23.1526+63.4215C23.1266+63.3275+23.1946+63.2525+23.2136+63.1675C23.2406+63.0485+23.4056+62.9725+23.3616+62.8325C23.3596+62.8255+23.3726+62.8175+23.3736+62.8095C23.3766+62.7845+23.3836+62.7585+23.3776+62.7345C23.3586+62.6685+23.3676+62.5965+23.3796+62.5395C23.3956+62.4715+23.4266+62.4005+23.4436+62.3275C23.4696+62.2135+23.5116+62.1015+23.5636+61.9915C23.6106+61.8925+23.6816+61.7985+23.8136+61.7595C23.9396+61.7225+24.0686+61.6935+24.1966+61.6605C24.2226+61.6535+24.2476+61.6435+24.2796+61.6325C24.1306+61.5485+24.1276+61.5375+24.1856+61.3985C24.1936+61.3795+24.2046+61.3575+24.1996+61.3385C24.1806+61.2705+24.2296+61.2235+24.2636+61.1705C24.2736+61.1545+24.2796+61.1385+24.2876+61.1225C24.2816+61.1205+24.2766+61.1185+24.2706+61.1165C24.2556+61.1305+24.2386+61.1445+24.2166+61.1635C24.1766+61.1145+24.1916+61.0695+24.2116+61.0285C24.2696+60.9165+24.3426+60.8085+24.3896+60.6925C24.4386+60.5755+24.4686+60.4515+24.4996+60.3295C24.5426+60.1545+24.6106+59.9945+24.7946+59.8845C25.0226+59.7475+25.2796+59.7135+25.5496+59.7375C25.7496+59.7555+25.8976+59.8545+25.9946+59.9925C26.0506+60.0725+26.0686+60.1705+26.1106+60.2585C26.1776+60.3925+26.2956+60.5125+26.2496+60.6725C26.2476+60.6755+26.2516+60.6805+26.2526+60.6845C26.2896+60.8195+26.3266+60.9555+26.3636+61.0905C26.3736+61.1265+26.3846+61.1635+26.3956+61.1995C26.4146+61.2605+26.4176+61.3175+26.3806+61.3765C26.3676+61.3995+26.3706+61.4405+26.3856+61.4635C26.4396+61.5385+26.4016+61.6075+26.2966+61.6155C26.2636+61.6185+26.2316+61.6245+26.2016+61.6345C26.1886+61.6385+26.1696+61.6575+26.1726+61.6655C26.1766+61.6795+26.1936+61.6925+26.2106+61.6975C26.3076+61.7325+26.4066+61.7645+26.5056+61.7965C26.6126+61.8315+26.6986+61.8855+26.7326+61.9825C26.7556+62.0475+26.7776+62.1115+26.8026+62.1755C26.8466+62.2825+26.8846+62.3865+26.8896+62.5055C26.8946+62.6365+26.9706+62.7635+27.0006+62.8955C27.0156+62.9625+26.9816+63.0355+27.0146+63.1055C27.0166+63.1095+27.0056+63.1195+27.0036+63.1275C26.9986+63.1675+26.9836+63.2105+26.9926+63.2485C27.0086+63.3175+27.0086+63.3805+26.9616+63.4415C26.9496+63.4565+26.9446+63.4775+26.9466+63.4945C26.9546+63.5945+26.9636+63.6935+26.9746+63.7935C27.0076+64.0925+27.0416+64.3915+27.0756+64.6905C27.0786+64.7135+27.0876+64.7355+27.0936+64.7585C27.1026+64.7585+27.1106+64.7585+27.1196+64.7595C27.1266+64.7285+27.1386+64.6975+27.1396+64.6665C27.1556+64.3575+27.1696+64.0495+27.1866+63.7405C27.1896+63.6915+27.2046+63.6415+27.2226+63.5945C27.2796+63.4445+27.3496+63.2985+27.3456+63.1365C27.3446+63.0765+27.3276+63.0445+27.2506+63.0455C27.1956+63.0465+27.1726+63.0215+27.1816+62.9765C27.1926+62.9245+27.2046+62.8725+27.2156+62.8205C27.2476+62.6665+27.2926+62.5125+27.3106+62.3565C27.3326+62.1535+27.3306+61.9495+27.3446+61.7465C27.3596+61.5005+27.5516+61.3475+27.7766+61.2245C27.8876+61.1635+28.0206+61.1325+28.1436+61.0885C28.2036+61.0655+28.2646+61.0475+28.3216+61.0205C28.3726+60.9955+28.4126+60.9525+28.4656+60.9355C28.5626+60.9025+28.5696+60.8405+28.5656+60.7725C28.5636+60.7525+28.5436+60.7205+28.5266+60.7175C28.4256+60.7005+28.3986+60.6305+28.3546+60.5695C28.3236+60.5265+28.2886+60.4855+28.2566+60.4435C28.2186+60.3925+28.1686+60.3445+28.1496+60.2885C28.1066+60.1665+28.0846+60.0395+28.0476+59.9165C28.0076+59.7865+28.0586+59.6595+28.0626+59.5315C28.0636+59.5185+28.0796+59.5005+28.0946+59.4905C28.2046+59.4145+28.3066+59.3285+28.4476+59.2885C28.4686+59.2825+28.4826+59.2615+28.5006+59.2475L28.9406+59.2475C28.9906+59.2745+29.0376+59.3105+29.0926+59.3295C29.2996+59.3995+29.4166+59.5485+29.4096+59.7315C29.4086+59.7615+29.4316+59.8005+29.4586+59.8195C29.5066+59.8545+29.5266+59.8905+29.5226+59.9405C29.5156+60.0055+29.5176+60.0715+29.5046+60.1355C29.4866+60.2185+29.4586+60.3015+29.3686+60.3525C29.3206+60.3785+29.3026+60.4105+29.3086+60.4525C29.3256+60.5725+29.3406+60.6935+29.3696+60.8135C29.3766+60.8415+29.4286+60.8725+29.4686+60.8835C29.5316+60.9005+29.6036+60.8995+29.6696+60.9135C29.6996+60.9195+29.7246+60.9425+29.7526+60.9575C29.7776+60.9715+29.8026+60.9895+29.8306+60.9965C29.9376+61.0215+30.0506+61.0315+30.1516+61.0665C30.3396+61.1305+30.5266+61.1905+30.7286+61.2155C30.7546+61.2185+30.7856+61.2375+30.7996+61.2575C30.9196+61.4175+31.0836+61.5555+31.1226+61.7555C31.1456+61.8715+31.2136+61.9825+31.2416+62.0985C31.3036+62.3545+31.3776+62.6065+31.5076+62.8445C31.5296+62.8845+31.5486+62.9195+31.5016+62.9575C31.4886+62.9675+31.4886+62.9935+31.4946+63.0105C31.5186+63.0855+31.5466+63.1585+31.5726+63.2325C31.5936+63.2905+31.6136+63.3495+31.6346+63.4065C31.6776+63.5215+31.7376+63.6325+31.7626+63.7485C31.8076+63.9635+31.8346+64.1805+31.8666+64.3975C31.8836+64.5115+31.8936+64.6265+31.9156+64.7395C31.9306+64.8215+31.9746+64.9005+31.9826+64.9825C31.9936+65.1115+31.9816+65.2425+31.9846+65.3715C31.9856+65.4005+32.0036+65.4415+32.0296+65.4565C32.1316+65.5095+32.2386+65.5575+32.3466+65.6015C32.4826+65.6555+32.6196+65.7085+32.7596+65.7565C32.7986+65.7695+32.8496+65.7655+32.8946+65.7605C32.9226+65.7585+32.9506+65.7425+32.9766+65.7305C33.0346+65.6995+33.1326+65.7025+33.1256+65.6125C33.1256+65.6065+33.1406+65.5965+33.1506+65.5905C33.2796+65.5295+33.4046+65.4605+33.5406+65.4125C33.6176+65.3865+33.7136+65.3985+33.8006+65.3895C33.8296+65.3865+33.8566+65.3705+33.8836+65.3595C33.8626+65.3415+33.8426+65.3215+33.8206+65.3045C33.8166+65.3005+33.8066+65.3005+33.7996+65.2985C33.6886+65.2735+33.6696+65.2215+33.7426+65.1475C33.7916+65.0975+33.8486+65.0515+33.8916+64.9975C33.9206+64.9615+33.9336+64.9155+33.9486+64.8735C33.9716+64.8105+33.9706+64.7325+34.0156+64.6855C34.1116+64.5835+34.1696+64.4655+34.2516+64.3585C34.2786+64.3225+34.3286+64.2915+34.3766+64.2735C34.5296+64.2165+34.6956+64.2145+34.8596+64.2155C34.9876+64.2155+35.1086+64.2515+35.2156+64.3085C35.3886+64.3995+35.4646+64.5455+35.5016+64.7025C35.5296+64.8265+35.5766+64.9395+35.6896+65.0225C35.7546+65.0685+35.7906+65.1445+35.8896+65.1635C35.9396+65.1735+35.9956+65.3105+35.9836+65.3535C35.9666+65.4165+35.9176+65.4465+35.8456+65.4645C35.7676+65.4835+35.7296+65.5405+35.6926+65.5955C35.6806+65.6115+35.6706+65.6355+35.6516+65.6435C35.5916+65.6675+35.5276+65.6865+35.4636+65.7075C35.4646+65.7105+35.4696+65.7175+35.4756+65.7235C35.5736+65.8235+35.6726+65.9245+35.7696+66.0255C35.7816+66.0385+35.7786+66.0625+35.7876+66.0785C35.8016+66.1075+35.8126+66.1415+35.8366+66.1645C35.9276+66.2535+36.0426+66.3295+36.1126+66.4285C36.1866+66.5325+36.2296+66.6545+36.2706+66.7735C36.3236+66.9285+36.3596+67.0875+36.4056+67.2435C36.4366+67.3465+36.5256+67.4175+36.6076+67.4925M25.1726+67.9675L25.1446+67.9675C25.1406+67.9955+25.1316+68.0235+25.1326+68.0525C25.1376+68.1235+25.1496+68.1935+25.1516+68.2655C25.1576+68.4485+25.1606+68.6325+25.1666+68.8165C25.1666+68.8395+25.1786+68.8615+25.1856+68.8845C25.2006+68.8635+25.2306+68.8445+25.2306+68.8245C25.2366+68.6175+25.2446+68.4105+25.2376+68.2035C25.2346+68.1245+25.1956+68.0465+25.1726+67.9675M25.1116+67.7525L25.1346+67.7525C25.1346+67.6725+25.1326+67.5925+25.1346+67.5115C25.1416+67.2645+25.1526+67.0165+25.1546+66.7695C25.1546+66.6705+25.1366+66.5715+25.1206+66.4755C25.1146+66.4385+25.0896+66.4025+25.0726+66.3665C25.0636+66.3675+25.0536+66.3695+25.0436+66.3715C25.0706+66.8315+24.9436+67.2955+25.1116+67.7525M29.4026+69.3955C29.4136+69.3945+29.4236+69.3935+29.4346+69.3925C29.4576+69.3075+29.4896+69.2245+29.4786+69.1325C29.4696+69.0655+29.4686+68.9955+29.4706+68.9265C29.4716+68.8745+29.4896+68.8225+29.4896+68.7715C29.4896+68.6275+29.4746+68.4845+29.4846+68.3425C29.5016+68.1085+29.4676+67.8715+29.5596+67.6435C29.5686+67.6215+29.5486+67.5705+29.5276+67.5645C29.4356+67.5345+29.4246+67.4755+29.4186+67.4075C29.3876+67.0515+29.3536+66.6955+29.3266+66.3395C29.3206+66.2635+29.2976+66.1945+29.2476+66.1335C29.2366+66.1195+29.2146+66.1135+29.1976+66.1035C29.1876+66.1185+29.1706+66.1345+29.1696+66.1505C29.1676+66.1845+29.1766+66.2175+29.1766+66.2505C29.1656+66.9715+29.1546+67.6905+29.2256+68.4105C29.2556+68.7105+29.2926+69.0085+29.3616+69.3035C29.3696+69.3345+29.3886+69.3645+29.4026+69.3955" opacity="1" fill="#024e91"/>
<path d="M-6.16536-19.0616L237.385-19.0616L237.385+156.568L-6.16536+156.568L-6.16536-19.0616Z" opacity="0" fill="none"/>
</g>
</svg>
